<?xml version="1.0" encoding="utf-8"?>
<!-- Generator: Adobe Illustrator 23.1.0, SVG Export Plug-In . SVG Version: 6.00 Build 0)  -->
<svg version="1.1" id="Layer_1" xmlns="http://www.w3.org/2000/svg" xmlns:xlink="http://www.w3.org/1999/xlink" x="0px" y="0px"
	 viewBox="0 0 162 180" style="enable-background:new 0 0 162 180;" xml:space="preserve">
<style type="text/css">
	.st0{fill:#BBDFBB;}
	.st1{fill:#FFFFFF;}
</style>
<g>
	<rect x="10" y="7" transform="matrix(0.6939 -0.72 0.72 0.6939 -5.5003 18.069)" class="st0" width="17" height="17"/>
	<path class="st1" d="M18.3,4.2l11.5,11.1L18.7,26.8L7.2,15.7L18.3,4.2 M18.3,2.8l-12.5,13l13,12.5l12.5-13L18.3,2.8L18.3,2.8z"/>
</g>
<g>
	<rect x="10.5" y="32.5" transform="matrix(0.6939 -0.72 0.72 0.6939 -23.6823 26.1967)" class="st0" width="17" height="17"/>
	<path class="st1" d="M18.8,29.6l11.5,11.1L19.2,52.3L7.7,41.2L18.8,29.6 M18.7,28.2l-12.5,13l13,12.5l12.5-13L18.7,28.2L18.7,28.2z
		"/>
</g>
<g>
	<rect x="35.5" y="6.5" transform="matrix(0.6939 -0.72 0.72 0.6939 2.6275 36.251)" class="st0" width="17" height="17"/>
	<path class="st1" d="M43.7,3.7l11.5,11.1L44.2,26.3L32.6,15.2L43.7,3.7 M43.7,2.3l-12.5,13l13,12.5l12.5-13L43.7,2.3L43.7,2.3z"/>
</g>
<g>
	<rect x="35.9" y="32" transform="matrix(0.6939 -0.72 0.72 0.6939 -15.5546 44.3787)" class="st0" width="17" height="17"/>
	<path class="st1" d="M44.2,29.2l11.5,11.1L44.6,51.8L33.1,40.7L44.2,29.2 M44.2,27.8l-12.5,13l13,12.5l12.5-13L44.2,27.8L44.2,27.8
		z"/>
</g>
<g>
	<rect x="62.1" y="30.8" transform="matrix(0.6939 -0.72 0.72 0.6939 -6.6962 62.84)" class="st0" width="17" height="17"/>
	<path class="st1" d="M70.4,28l11.5,11.1L70.8,50.6L59.3,39.5L70.4,28 M70.3,26.6l-12.5,13l13,12.5l12.5-13L70.3,26.6L70.3,26.6z"/>
</g>
<g>
	<rect x="61.6" y="5.3" transform="matrix(0.6939 -0.72 0.72 0.6939 11.4859 54.7124)" class="st0" width="17" height="17"/>
	<path class="st1" d="M69.9,2.5l11.5,11.1L70.3,25.2L58.8,14.1L69.9,2.5 M69.9,1.1l-12.5,13l13,12.5l12.5-13L69.9,1.1L69.9,1.1z"/>
</g>
<g>
	<rect x="87.1" y="4.9" transform="matrix(0.694 -0.72 0.72 0.694 19.6124 72.8928)" class="st0" width="17" height="17"/>
	<path class="st1" d="M95.3,2.1l11.5,11.1L95.8,24.7L84.2,13.6L95.3,2.1 M95.3,0.6l-12.5,13l13,12.5l12.5-13L95.3,0.6L95.3,0.6z"/>
</g>
<g>
	<rect x="86.8" y="31" transform="matrix(0.6939 -0.72 0.72 0.6939 0.7008 80.7427)" class="st0" width="17" height="17"/>
	<path class="st1" d="M95.1,28.2l11.5,11.1L95.5,50.9L84,39.8L95.1,28.2 M95.1,26.8l-12.5,13l13,12.5l12.5-13L95.1,26.8L95.1,26.8z"
		/>
</g>
<g>
	<rect x="112.5" y="4.4" transform="matrix(0.6939 -0.72 0.72 0.6939 27.7414 91.0763)" class="st0" width="17" height="17"/>
	<path class="st1" d="M120.8,1.6l11.5,11.1l-11.1,11.5l-11.5-11.1L120.8,1.6 M120.8,0.2l-12.5,13l13,12.5l12.5-13L120.8,0.2
		L120.8,0.2z"/>
</g>
<g>
	<rect x="112.3" y="30.6" transform="matrix(0.6939 -0.72 0.72 0.6939 8.8286 98.9248)" class="st0" width="17" height="17"/>
	<path class="st1" d="M120.6,27.8l11.5,11.1L121,50.4l-11.5-11.1L120.6,27.8 M120.5,26.4l-12.5,13l13,12.5l12.5-13L120.5,26.4
		L120.5,26.4z"/>
</g>
<g>
	<rect x="138" y="3.9" transform="matrix(0.6939 -0.72 0.72 0.6939 35.8691 109.2584)" class="st0" width="17" height="17"/>
	<path class="st1" d="M146.2,1.1l11.5,11.1l-11.1,11.5l-11.5-11.1L146.2,1.1 M146.2-0.3l-12.5,13l13,12.5l12.5-13L146.2-0.3
		L146.2-0.3z"/>
</g>
<g>
	<rect x="138.4" y="29.4" transform="matrix(0.6939 -0.72 0.72 0.6939 17.6887 117.3887)" class="st0" width="17" height="17"/>
	<path class="st1" d="M146.7,26.6l11.5,11.1l-11.1,11.5l-11.5-11.1L146.7,26.6 M146.7,25.2l-12.5,13l13,12.5l12.5-13L146.7,25.2
		L146.7,25.2z"/>
</g>
<g>
	<rect x="138.2" y="55.6" transform="matrix(0.694 -0.72 0.72 0.694 -1.227 125.2315)" class="st0" width="17" height="17"/>
	<path class="st1" d="M146.5,52.7L158,63.9l-11.1,11.5l-11.5-11.1L146.5,52.7 M146.5,51.3l-12.5,13l13,12.5l12.5-13L146.5,51.3
		L146.5,51.3z"/>
</g>
<g>
	<rect x="112.8" y="56" transform="matrix(0.6939 -0.72 0.72 0.6939 -9.3535 107.0525)" class="st0" width="17" height="17"/>
	<path class="st1" d="M121,53.2l11.5,11.1l-11.1,11.5l-11.5-11.1L121,53.2 M121,51.8l-12.5,13l13,12.5l12.5-13L121,51.8L121,51.8z"
		/>
</g>
<g>
	<rect x="87.3" y="56.5" transform="matrix(0.6939 -0.72 0.72 0.6939 -17.4812 88.8705)" class="st0" width="17" height="17"/>
	<path class="st1" d="M95.6,53.7l11.5,11.1L96,76.3L84.5,65.2L95.6,53.7 M95.6,52.3l-12.5,13l13,12.5l12.5-13L95.6,52.3L95.6,52.3z"
		/>
</g>
<g>
	<rect x="61.8" y="57" transform="matrix(0.694 -0.72 0.72 0.694 -25.609 70.6866)" class="st0" width="17" height="17"/>
	<path class="st1" d="M70.1,54.2l11.5,11.1L70.6,76.8L59,65.7L70.1,54.2 M70.1,52.7l-12.5,13l13,12.5l12.5-13L70.1,52.7L70.1,52.7z"
		/>
</g>
<g>
	<rect x="36.4" y="57.4" transform="matrix(0.6939 -0.72 0.72 0.6939 -33.7369 52.5081)" class="st0" width="17" height="17"/>
	<path class="st1" d="M44.7,54.6l11.5,11.1L45.1,77.2L33.6,66.1L44.7,54.6 M44.7,53.2l-12.5,13l13,12.5l12.5-13L44.7,53.2L44.7,53.2
		z"/>
</g>
<g>
	<rect x="10.9" y="57.9" transform="matrix(0.6939 -0.72 0.72 0.6939 -41.865 34.3257)" class="st0" width="17" height="17"/>
	<path class="st1" d="M19.2,55.1l11.5,11.1L19.7,77.7L8.1,66.6L19.2,55.1 M19.2,53.7l-12.5,13l13,12.5l12.5-13L19.2,53.7L19.2,53.7z
		"/>
</g>
<g>
	<rect x="11.4" y="83.4" transform="matrix(0.6939 -0.72 0.72 0.6939 -60.0463 42.4522)" class="st0" width="17" height="17"/>
	<path class="st1" d="M19.7,80.5l11.5,11.1l-11.1,11.5L8.6,92.1L19.7,80.5 M19.7,79.1l-12.5,13l13,12.5l12.5-13L19.7,79.1L19.7,79.1
		z"/>
</g>
<g>
	<rect x="36.9" y="82.9" transform="matrix(0.6939 -0.72 0.72 0.6939 -51.9186 60.6342)" class="st0" width="17" height="17"/>
	<path class="st1" d="M45.2,80.1l11.5,11.1l-11.1,11.5L34.1,91.6L45.2,80.1 M45.1,78.7l-12.5,13l13,12.5l12.5-13L45.1,78.7
		L45.1,78.7z"/>
</g>
<g>
	<rect x="62.3" y="82.4" transform="matrix(0.6939 -0.72 0.72 0.6939 -43.7909 78.8162)" class="st0" width="17" height="17"/>
	<path class="st1" d="M70.6,79.6l11.5,11.1L71,102.2L59.5,91.1L70.6,79.6 M70.6,78.2l-12.5,13l13,12.5l12.5-13L70.6,78.2L70.6,78.2z
		"/>
</g>
<g>
	<rect x="87.8" y="82" transform="matrix(0.6939 -0.72 0.72 0.6939 -35.6631 97.0009)" class="st0" width="17" height="17"/>
	<path class="st1" d="M96.1,79.1l11.5,11.1l-11.1,11.5L85,90.7L96.1,79.1 M96,77.7l-12.5,13l13,12.5l12.5-13L96,77.7L96,77.7z"/>
</g>
<g>
	<rect x="113.2" y="81.5" transform="matrix(0.6939 -0.72 0.72 0.6939 -27.535 115.1833)" class="st0" width="17" height="17"/>
	<path class="st1" d="M121.5,78.7L133,89.8l-11.1,11.5l-11.5-11.1L121.5,78.7 M121.5,77.3l-12.5,13l13,12.5l12.5-13L121.5,77.3
		L121.5,77.3z"/>
</g>
<g>
	<rect x="138.7" y="81" transform="matrix(0.6939 -0.72 0.72 0.6939 -19.4078 133.3622)" class="st0" width="17" height="17"/>
	<path class="st1" d="M147,78.2l11.5,11.1l-11.1,11.5l-11.5-11.1L147,78.2 M146.9,76.8l-12.5,13l13,12.5l12.5-13L146.9,76.8
		L146.9,76.8z"/>
</g>
<g>
	<rect x="139.1" y="106.5" transform="matrix(0.694 -0.72 0.72 0.694 -37.5902 141.4862)" class="st0" width="17" height="17"/>
	<path class="st1" d="M147.4,103.7l11.5,11.1l-11.1,11.5l-11.5-11.1L147.4,103.7 M147.4,102.2l-12.5,13l13,12.5l12.5-13L147.4,102.2
		L147.4,102.2z"/>
</g>
<g>
	<rect x="113.7" y="106.9" transform="matrix(0.6939 -0.72 0.72 0.6939 -45.7174 123.308)" class="st0" width="17" height="17"/>
	<path class="st1" d="M122,104.1l11.5,11.1l-11.1,11.5l-11.5-11.1L122,104.1 M122,102.7l-12.5,13l13,12.5l12.5-13L122,102.7
		L122,102.7z"/>
</g>
<g>
	<rect x="88.2" y="107.4" transform="matrix(0.6939 -0.72 0.72 0.6939 -53.8452 105.126)" class="st0" width="17" height="17"/>
	<path class="st1" d="M96.5,104.6l11.5,11.1l-11.1,11.5l-11.5-11.1L96.5,104.6 M96.5,103.2l-12.5,13l13,12.5l12.5-13L96.5,103.2
		L96.5,103.2z"/>
</g>
<g>
	<rect x="62.8" y="107.9" transform="matrix(0.694 -0.72 0.72 0.694 -61.9723 86.9412)" class="st0" width="17" height="17"/>
	<path class="st1" d="M71.1,105.1l11.5,11.1l-11.1,11.5L60,116.6L71.1,105.1 M71.1,103.6l-12.5,13l13,12.5l12.5-13L71.1,103.6
		L71.1,103.6z"/>
</g>
<g>
	<rect x="37.3" y="108.3" transform="matrix(0.694 -0.72 0.72 0.694 -70.0997 68.7595)" class="st0" width="17" height="17"/>
	<path class="st1" d="M45.6,105.5l11.5,11.1L46,128.2L34.5,117L45.6,105.5 M45.6,104.1l-12.5,13l13,12.5l12.5-13L45.6,104.1
		L45.6,104.1z"/>
</g>
<g>
	<rect x="11.9" y="108.8" transform="matrix(0.6939 -0.72 0.72 0.6939 -78.2284 50.5799)" class="st0" width="17" height="17"/>
	<path class="st1" d="M20.2,106l11.5,11.1l-11.1,11.5L9.1,117.5L20.2,106 M20.1,104.6l-12.5,13l13,12.5l12.5-13L20.1,104.6
		L20.1,104.6z"/>
</g>
<g>
	<rect x="37.8" y="133.8" transform="matrix(0.694 -0.72 0.72 0.694 -88.2814 76.8869)" class="st0" width="17" height="17"/>
	<path class="st1" d="M46.1,131l11.5,11.1l-11.1,11.5L35,142.5L46.1,131 M46.1,129.6l-12.5,13l13,12.5l12.5-13L46.1,129.6
		L46.1,129.6z"/>
</g>
<g>
	<rect x="64" y="132.6" transform="matrix(0.694 -0.72 0.72 0.694 -79.4231 95.3478)" class="st0" width="17" height="17"/>
	<path class="st1" d="M72.2,129.8l11.5,11.1l-11.1,11.5l-11.5-11.1L72.2,129.8 M72.2,128.4l-12.5,13l13,12.5l12.5-13L72.2,128.4
		L72.2,128.4z"/>
</g>
<g>
	<rect x="89.4" y="132.1" transform="matrix(0.6939 -0.72 0.72 0.6939 -71.2964 113.5329)" class="st0" width="17" height="17"/>
	<path class="st1" d="M97.7,129.3l11.5,11.1l-11.1,11.5l-11.5-11.1L97.7,129.3 M97.7,127.9l-12.5,13l13,12.5l12.5-13L97.7,127.9
		L97.7,127.9z"/>
</g>
<g>
	<rect x="114.9" y="131.7" transform="matrix(0.6939 -0.72 0.72 0.6939 -63.1686 131.715)" class="st0" width="17" height="17"/>
	<path class="st1" d="M123.1,128.9l11.5,11.1l-11.1,11.5L112,140.4L123.1,128.9 M123.1,127.4l-12.5,13l13,12.5l12.5-13L123.1,127.4
		L123.1,127.4z"/>
</g>
<g>
	<rect x="140.3" y="131.2" transform="matrix(0.694 -0.72 0.72 0.694 -55.0412 149.8928)" class="st0" width="17" height="17"/>
	<path class="st1" d="M148.6,128.4l11.5,11.1L149,151l-11.5-11.1L148.6,128.4 M148.6,127l-12.5,13l13,12.5l12.5-13L148.6,127
		L148.6,127z"/>
</g>
<g>
	<rect x="140.8" y="156.6" transform="matrix(0.694 -0.72 0.72 0.694 -73.2228 158.0202)" class="st0" width="17" height="17"/>
	<path class="st1" d="M149.1,153.8l11.5,11.1l-11.1,11.5L138,165.4L149.1,153.8 M149,152.4l-12.5,13l13,12.5l12.5-13L149,152.4
		L149,152.4z"/>
</g>
<g>
	<rect x="114.6" y="157.8" transform="matrix(0.6939 -0.72 0.72 0.6939 -82.0815 139.5632)" class="st0" width="17" height="17"/>
	<path class="st1" d="M122.9,155l11.5,11.1l-11.1,11.5l-11.5-11.1L122.9,155 M122.9,153.6l-12.5,13l13,12.5l12.5-13L122.9,153.6
		L122.9,153.6z"/>
</g>
<g>
	<rect x="89.2" y="158.3" transform="matrix(0.6939 -0.72 0.72 0.6939 -90.2102 121.3851)" class="st0" width="17" height="17"/>
	<path class="st1" d="M97.5,155.5l11.5,11.1l-11.1,11.5L86.4,167L97.5,155.5 M97.4,154.1L85,167l13,12.5l12.5-13L97.4,154.1
		L97.4,154.1z"/>
</g>
<g>
	<rect x="63.7" y="158.8" transform="matrix(0.6939 -0.72 0.72 0.6939 -98.3383 103.2028)" class="st0" width="17" height="17"/>
	<path class="st1" d="M72,156l11.5,11.1l-11.1,11.5l-11.5-11.1L72,156 M72,154.5l-12.5,13l13,12.5L85,167L72,154.5L72,154.5z"/>
</g>
</svg>
