<?xml version="1.0" encoding="utf-8"?>
<!-- Generator: Adobe Illustrator 23.1.0, SVG Export Plug-In . SVG Version: 6.00 Build 0)  -->
<svg version="1.1" id="Capa_1" xmlns="http://www.w3.org/2000/svg" xmlns:xlink="http://www.w3.org/1999/xlink" x="0px" y="0px"
	 viewBox="0 0 45.1 45.1" style="enable-background:new 0 0 45.1 45.1;" xml:space="preserve">
<style type="text/css">
	.st0{fill:#AB9D80;}
</style>
<g>
	<g>
		<ellipse class="st0" cx="22.6" cy="31.2" rx="2.5" ry="1"/>
		<path class="st0" d="M42.7,24.5v-8.6c0-0.6,0-1.1-0.1-1.7c0-0.1,0-0.1,0-0.2c0-0.1,0-0.1-0.1-0.2c-0.1-0.7-0.3-1.4-0.6-2
			C39.7,6.6,33.4,1.7,26.2,0.3C18.6-1.2,10.4,2.8,8.5,7.7c-3.7,1.1-6.1,3.4-6.1,8.2v8.6c-0.9,1.1-1.4,2.5-1.4,4.1
			c0,3,1.9,5.5,4.5,6.3c3.3,6.2,9.8,10.3,17.1,10.3c7.3,0,13.8-4,17.1-10.3c2.5-0.8,4.4-3.3,4.4-6.3C44.1,27,43.5,25.6,42.7,24.5z
			 M37.8,31.1c-0.3,0-0.6-0.1-0.8-0.2c-2,5.9-7.7,10.2-14.4,10.2c-6.7,0-12.4-4.3-14.4-10.2c-0.3,0.1-0.6,0.2-0.9,0.2
			c-1.2,0-2.2-1.1-2.2-2.6s1-2.6,2.2-2.6c0,0,0,0,0.1,0c0-2,0.4-5.2,1.2-7.1c1,1.4,2.5,2.6,4.6,2.6c0,0,0,0,0,0c0.1,0,0.2,0,0.3,0
			c0.2,0,0.4-0.1,0.4-0.3c0-0.1,1.8-5.1,6.6-5.6c0.2,1,0.5,3.7-1.7,5.3c-0.2,0.1-0.2,0.3-0.2,0.5s0.2,0.3,0.4,0.4c0,0,1,0.2,2.5,0.2
			c2.5,0,7.1-0.5,10.1-3.5c0.5,0.5,1.4,1.7,1,4c0,0.2,0.1,0.4,0.2,0.5c0.1,0,0.2,0.1,0.2,0.1c0.1,0,0.2,0,0.3-0.1
			c0.1-0.1,2-1.7,3.3-3.5c0.6,1.9,1,4.7,1,6.5c0,0,0,0,0,0c1.2,0,2.2,1.1,2.2,2.6S39.1,31.1,37.8,31.1z"/>
		<circle class="st0" cx="15.8" cy="25.1" r="2.2"/>
		<circle class="st0" cx="29.4" cy="25.1" r="2.2"/>
	</g>
</g>
</svg>
