<?xml version="1.0" encoding="utf-8"?>
<!-- Generator: Adobe Illustrator 23.1.0, SVG Export Plug-In . SVG Version: 6.00 Build 0)  -->
<svg version="1.1" id="Layer_1" xmlns="http://www.w3.org/2000/svg" xmlns:xlink="http://www.w3.org/1999/xlink" x="0px" y="0px"
	 viewBox="0 0 187.8 112.8" style="enable-background:new 0 0 187.8 112.8;" xml:space="preserve">
<style type="text/css">
	.st0{display:none;}
	.st1{display:inline;fill:#E0EFDB;}
	.st2{display:inline;fill:none;stroke:#E0EFDB;stroke-width:5;stroke-miterlimit:10;}
	.st3{display:none;fill:#FFFFFF;}
	.st4{opacity:0.19;}
	.st5{fill:none;stroke:#000000;stroke-miterlimit:10;}
	.st6{fill:none;stroke:#000000;stroke-width:2;stroke-miterlimit:10;}
	.st7{fill:#AB9D80;}
	.st8{display:none;enable-background:new    ;}
	.st9{font-family:'MyriadPro-Regular';}
	.st10{font-size:12px;}
	.st11{font-size:10px;}
	.st12{fill:#FFFFFF;}
	.st13{fill:#E0EFDB;}
</style>
<g class="st0">
	<path class="st1" d="M183.9,105.6c0,2.2-1.8,4-4,4H7.6c-2.2,0-4-1.8-4-4V8c0-2.2,1.8-4,4-4h172.3c2.2,0,4,1.8,4,4L183.9,105.6
		L183.9,105.6z"/>
	<path class="st2" d="M183.9,105.6c0,2.2-1.8,4-4,4H7.6c-2.2,0-4-1.8-4-4V8c0-2.2,1.8-4,4-4h172.3c2.2,0,4,1.8,4,4L183.9,105.6
		L183.9,105.6z"/>
</g>
<rect x="139.1" y="49.3" class="st3" width="41.7" height="43.9"/>
<polygon class="st0" points="139.1,49.4 181,49.4 139.1,93.2 "/>
<g class="st4">
	<line class="st5" x1="18" y1="22.8" x2="180" y2="22.8"/>
	<line class="st5" x1="18" y1="31.8" x2="180" y2="31.8"/>
	<line class="st5" x1="18" y1="40.8" x2="180" y2="40.8"/>
	<line class="st5" x1="18" y1="49.8" x2="180" y2="49.8"/>
	<line class="st5" x1="18" y1="58.8" x2="180" y2="58.8"/>
	<line class="st5" x1="18" y1="67.8" x2="180" y2="67.8"/>
	<line class="st5" x1="18" y1="76.8" x2="180" y2="76.8"/>
	<line class="st5" x1="18" y1="85.8" x2="180" y2="85.8"/>
	<line class="st5" x1="18" y1="94.8" x2="180" y2="94.8"/>
</g>
<line class="st6" x1="46.8" y1="18.9" x2="69.5" y2="18.9"/>
<line class="st6" x1="46.8" y1="14.5" x2="102.6" y2="14.5"/>
<line class="st6" x1="125.2" y1="106.4" x2="147.9" y2="106.4"/>
<g>
	<path class="st7" d="M20.6,102.1l0.3-4.7h0.7l0.6,1.7l0.8,2.2c0.3-0.8,0.5-1.5,0.8-2.2l0.7-1.7h0.7l0.4,4.7H25l-0.2-1.9l-0.2-2.1
		c-0.2,0.7-0.5,1.4-0.8,2.1l-0.7,1.8h-0.5l-0.6-1.8l-0.7-2.1c0,0.2,0,0.9-0.1,2.1l-0.1,1.9H20.6z"/>
	<path class="st7" d="M28.1,102.2c-0.5,0-0.9-0.2-1.2-0.5c-0.3-0.3-0.4-0.8-0.4-1.3s0.2-1,0.5-1.3s0.7-0.5,1.2-0.5s1,0.2,1.2,0.5
		s0.4,0.8,0.4,1.3s-0.1,1-0.4,1.3C29,102,28.6,102.2,28.1,102.2z M28.1,99c-0.3,0-0.6,0.1-0.8,0.4c-0.2,0.3-0.3,0.6-0.3,1
		s0.1,0.7,0.3,0.9s0.5,0.4,0.8,0.4c0.4,0,0.6-0.1,0.8-0.4c0.2-0.3,0.3-0.6,0.3-0.9c0-0.4-0.1-0.7-0.3-1S28.5,99,28.1,99z"/>
	<path class="st7" d="M31.1,98.6v0.6c0.2-0.4,0.6-0.7,1.1-0.7c0.3,0,0.6,0.1,0.8,0.3s0.3,0.5,0.3,0.8v2.4h-0.6v-2.3
		c0-0.3-0.1-0.5-0.2-0.6S32.3,99,32.1,99c-0.3,0-0.5,0.1-0.7,0.3c-0.2,0.2-0.3,0.5-0.3,0.9v1.9h-0.5v-3.5
		C30.6,98.6,31.1,98.6,31.1,98.6z"/>
</g>
<text transform="matrix(1 0 0 1 59.6544 87.2375)" class="st8 st9 st10">**** *** **** ***</text>
<text transform="matrix(1 0 0 1 63.7111 72.1164)" class="st8 st9 st11">Balance</text>
<text transform="matrix(1 0 0 1 141.965 72.8816)" class="st8 st9 st11">$322.00</text>
<g>
	<path d="M36,90.8c0,2.2-1.8,4-4,4H22c-2.2,0-4-1.8-4-4v-10c0-2.2,1.8-4,4-4h10c2.2,0,4,1.8,4,4V90.8z"/>
	<path class="st6" d="M36,90.8c0,2.2-1.8,4-4,4H22c-2.2,0-4-1.8-4-4v-10c0-2.2,1.8-4,4-4h10c2.2,0,4,1.8,4,4V90.8z"/>
</g>
<g>
	<path class="st12" d="M63,90.8c0,2.2-1.8,4-4,4H49c-2.2,0-4-1.8-4-4v-28c0-2.2,1.8-4,4-4h10c2.2,0,4,1.8,4,4V90.8z"/>
	<path class="st6" d="M63,90.8c0,2.2-1.8,4-4,4H49c-2.2,0-4-1.8-4-4v-28c0-2.2,1.8-4,4-4h10c2.2,0,4,1.8,4,4V90.8z"/>
</g>
<g>
	<path class="st13" d="M90,90.8c0,2.2-1.8,4-4,4H76c-2.2,0-4-1.8-4-4v-46c0-2.2,1.8-4,4-4h10c2.2,0,4,1.8,4,4V90.8z"/>
	<path class="st6" d="M90,90.8c0,2.2-1.8,4-4,4H76c-2.2,0-4-1.8-4-4v-46c0-2.2,1.8-4,4-4h10c2.2,0,4,1.8,4,4V90.8z"/>
</g>
<g>
	<path d="M153,90.8c0,2.2-1.8,4-4,4h-10c-2.2,0-4-1.8-4-4v-28c0-2.2,1.8-4,4-4h10c2.2,0,4,1.8,4,4V90.8z"/>
	<path class="st6" d="M153,90.8c0,2.2-1.8,4-4,4h-10c-2.2,0-4-1.8-4-4v-28c0-2.2,1.8-4,4-4h10c2.2,0,4,1.8,4,4V90.8z"/>
</g>
<g>
	<path class="st13" d="M180,90.8c0,2.2-1.8,4-4,4h-10c-2.2,0-4-1.8-4-4v-10c0-2.2,1.8-4,4-4h10c2.2,0,4,1.8,4,4V90.8z"/>
	<path class="st6" d="M180,90.8c0,2.2-1.8,4-4,4h-10c-2.2,0-4-1.8-4-4v-10c0-2.2,1.8-4,4-4h10c2.2,0,4,1.8,4,4V90.8z"/>
</g>
<g>
	<path class="st12" d="M126,90.8c0,2.2-1.8,4-4,4h-10c-2.2,0-4-1.8-4-4v-46c0-2.2,1.8-4,4-4h10c2.2,0,4,1.8,4,4V90.8z"/>
	<path class="st6" d="M126,90.8c0,2.2-1.8,4-4,4h-10c-2.2,0-4-1.8-4-4v-46c0-2.2,1.8-4,4-4h10c2.2,0,4,1.8,4,4V90.8z"/>
</g>
<g>
	<path class="st7" d="M51.8,97.4v0.5h-1.3v4.2H50v-4.2h-1.3v-0.5H51.8z"/>
	<path class="st7" d="M54.7,98.6h0.6v3.5h-0.6v-0.6c-0.2,0.4-0.6,0.7-1.1,0.7c-0.3,0-0.6-0.1-0.8-0.3s-0.3-0.5-0.3-0.8v-2.4H53v2.3
		c0,0.3,0.1,0.5,0.2,0.6c0.1,0.1,0.3,0.2,0.5,0.2c0.3,0,0.5-0.1,0.7-0.3c0.2-0.2,0.3-0.5,0.3-0.8V98.6z"/>
	<path class="st7" d="M58.8,101.4v0.5c-0.3,0.1-0.6,0.2-1,0.2c-0.5,0-1-0.2-1.3-0.5s-0.5-0.8-0.5-1.3c0-0.6,0.1-1,0.4-1.3
		c0.3-0.3,0.7-0.5,1.1-0.5c0.4,0,0.8,0.1,1.1,0.4s0.4,0.7,0.4,1.2c0,0.1,0,0.3,0,0.4h-2.4c0,0.3,0.2,0.6,0.4,0.8
		c0.2,0.2,0.5,0.3,0.9,0.3C58.3,101.6,58.6,101.6,58.8,101.4z M58.5,100.1L58.5,100.1c0-0.4-0.1-0.6-0.2-0.8
		c-0.2-0.2-0.4-0.3-0.7-0.3s-0.5,0.1-0.7,0.3s-0.3,0.5-0.3,0.8C56.6,100.1,58.5,100.1,58.5,100.1z"/>
</g>
<g>
	<path class="st7" d="M76.9,97.5h0.6l0.5,1.7l0.7,2.4c0.2-1,0.4-1.8,0.5-2.4l0.4-1.8h0.6l-1.1,4.7h-0.7l-0.5-1.5l-0.7-2.4
		c-0.1,0.6-0.4,1.3-0.7,2.4l-0.4,1.5h-0.7l-1.2-4.7h0.6l0.4,1.8l0.6,2.4c0.3-1,0.5-1.7,0.7-2.4L76.9,97.5z"/>
	<path class="st7" d="M83.6,101.4v0.5c-0.3,0.1-0.6,0.2-1,0.2c-0.5,0-1-0.2-1.3-0.5s-0.5-0.8-0.5-1.3c0-0.6,0.1-1,0.4-1.3
		s0.7-0.5,1.1-0.5s0.8,0.1,1.1,0.4c0.3,0.3,0.4,0.7,0.4,1.2c0,0.1,0,0.3,0,0.4h-2.4c0,0.3,0.2,0.6,0.4,0.8c0.2,0.2,0.5,0.3,0.9,0.3
		C83,101.6,83.3,101.6,83.6,101.4z M83.2,100.1L83.2,100.1c0-0.4-0.1-0.6-0.2-0.8c-0.2-0.2-0.4-0.3-0.7-0.3c-0.3,0-0.5,0.1-0.7,0.3
		s-0.3,0.5-0.3,0.8C81.3,100.1,83.2,100.1,83.2,100.1z"/>
	<path class="st7" d="M87,97.2h0.6v4.9H87v-0.5c-0.3,0.4-0.6,0.6-1.1,0.6s-0.8-0.2-1.1-0.5c-0.3-0.4-0.4-0.8-0.4-1.3
		c0-0.6,0.1-1,0.4-1.3s0.7-0.5,1.1-0.5c0.5,0,0.8,0.2,1.1,0.6V97.2z M86,101.7c0.3,0,0.5-0.1,0.7-0.3c0.2-0.2,0.3-0.6,0.3-1
		s-0.1-0.8-0.3-1S86.3,99,86,99s-0.5,0.1-0.7,0.4c-0.2,0.2-0.3,0.6-0.3,1s0.1,0.7,0.3,0.9C85.5,101.5,85.7,101.7,86,101.7z"/>
</g>
<g>
	<path class="st7" d="M115.5,97.4v0.5h-1.3v4.2h-0.6v-4.2h-1.3v-0.5H115.5z"/>
	<path class="st7" d="M116.7,97.2v2c0.2-0.4,0.6-0.7,1.1-0.7c0.3,0,0.6,0.1,0.8,0.3c0.2,0.2,0.3,0.5,0.3,0.9v2.4h-0.6v-2.3
		c0-0.3-0.1-0.5-0.2-0.6s-0.3-0.2-0.5-0.2c-0.3,0-0.5,0.1-0.7,0.3c-0.2,0.2-0.3,0.5-0.3,0.9v1.9h-0.5v-4.9L116.7,97.2L116.7,97.2z"
		/>
	<path class="st7" d="M120.5,98.6v0.6c0.2-0.4,0.5-0.7,1-0.7c0.1,0,0.1,0,0.2,0V99c-0.1,0-0.2,0-0.3,0c-0.2,0-0.5,0.1-0.6,0.3
		c-0.2,0.2-0.2,0.5-0.2,0.8v1.9H120v-3.5L120.5,98.6L120.5,98.6z"/>
</g>
<g>
	<path class="st7" d="M143.5,97.9h-2v1.7h1.8v0.5h-1.8v2.1h-0.6v-4.7h2.6V97.9z"/>
	<path class="st7" d="M144.8,98.6v0.6c0.2-0.4,0.5-0.7,1-0.7c0.1,0,0.1,0,0.2,0V99c-0.1,0-0.2,0-0.3,0c-0.2,0-0.5,0.1-0.6,0.3
		c-0.2,0.2-0.2,0.5-0.2,0.8v1.9h-0.6v-3.5L144.8,98.6L144.8,98.6z"/>
	<path class="st7" d="M146.6,97.7c-0.1-0.1-0.1-0.2-0.1-0.3s0-0.2,0.1-0.3s0.2-0.1,0.3-0.1s0.2,0,0.3,0.1s0.1,0.2,0.1,0.3
		s0,0.2-0.1,0.3c-0.1,0.1-0.2,0.1-0.3,0.1C146.7,97.8,146.7,97.8,146.6,97.7z M146.6,102.1v-3.5h0.6v3.5H146.6z"/>
</g>
<g>
	<path class="st7" d="M169.1,97.6v0.6c-0.3-0.2-0.6-0.3-1-0.3c-0.3,0-0.5,0.1-0.7,0.2s-0.3,0.3-0.3,0.5c0,0.1,0,0.2,0.1,0.3
		c0,0.1,0.1,0.2,0.2,0.2c0.1,0.1,0.2,0.1,0.3,0.2c0.1,0,0.2,0.1,0.4,0.2s0.3,0.1,0.4,0.2c0.1,0,0.2,0.1,0.3,0.2s0.2,0.2,0.3,0.3
		c0.1,0.1,0.1,0.2,0.2,0.3s0.1,0.3,0.1,0.4c0,0.4-0.1,0.7-0.4,1c-0.3,0.2-0.7,0.3-1.1,0.3c-0.5,0-0.9-0.1-1.3-0.3v-0.6
		c0.3,0.3,0.8,0.4,1.2,0.4c0.3,0,0.5-0.1,0.7-0.2s0.3-0.3,0.3-0.6c0-0.1,0-0.2-0.1-0.3c0-0.1-0.1-0.2-0.2-0.2
		c-0.1-0.1-0.2-0.1-0.3-0.2c-0.1,0-0.2-0.1-0.3-0.2c0,0-0.1,0-0.1-0.1c-0.2-0.1-0.4-0.2-0.5-0.2c-0.1-0.1-0.2-0.1-0.4-0.2
		c-0.1-0.1-0.2-0.2-0.3-0.4c-0.1-0.1-0.1-0.3-0.1-0.5c0-0.4,0.1-0.7,0.4-0.9c0.3-0.2,0.6-0.3,1.1-0.3
		C168.5,97.3,168.9,97.4,169.1,97.6z"/>
	<path class="st7" d="M170.4,99.3v-0.6c0.3-0.2,0.6-0.2,1-0.2c0.9,0,1.3,0.5,1.3,1.4v2.2h-0.5v-0.4c-0.2,0.3-0.5,0.5-1,0.5
		c-0.3,0-0.6-0.1-0.8-0.3c-0.2-0.2-0.3-0.4-0.3-0.7c0-0.3,0.1-0.6,0.4-0.8c0.3-0.2,0.6-0.3,1.1-0.3h0.6v-0.2c0-0.3-0.1-0.5-0.2-0.6
		s-0.3-0.2-0.6-0.2C171,99,170.7,99.1,170.4,99.3z M172.2,100.5h-0.6c-0.3,0-0.5,0.1-0.7,0.2c-0.1,0.1-0.2,0.3-0.2,0.4
		c0,0.2,0.1,0.3,0.2,0.4c0.1,0.1,0.3,0.2,0.5,0.2c0.3,0,0.5-0.1,0.6-0.2s0.2-0.3,0.2-0.5V100.5z"/>
	<path class="st7" d="M174.5,99v2.1c0,0.4,0.2,0.6,0.5,0.6c0.2,0,0.3-0.1,0.5-0.2v0.5c-0.2,0.1-0.3,0.1-0.5,0.1
		c-0.7,0-1.1-0.4-1.1-1.1v-2h-0.6v-0.4h0.6v-0.9h0.6v0.9h1V99H174.5z"/>
</g>
</svg>
