<?xml version="1.0" encoding="utf-8"?>
<!-- Generator: Adobe Illustrator 23.1.0, SVG Export Plug-In . SVG Version: 6.00 Build 0)  -->
<svg version="1.1" id="Layer_1" xmlns="http://www.w3.org/2000/svg" xmlns:xlink="http://www.w3.org/1999/xlink" x="0px" y="0px"
	 viewBox="0 0 187.8 112.8" style="enable-background:new 0 0 187.8 112.8;" xml:space="preserve">
<style type="text/css">
	.st0{display:none;}
	.st1{display:inline;fill:#E0EFDB;}
	.st2{display:inline;fill:none;stroke:#E0EFDB;stroke-width:5;stroke-miterlimit:10;}
	.st3{display:none;fill:#FFFFFF;}
	.st4{opacity:0.19;}
	.st5{fill:#E0EFDB;stroke:#000000;stroke-miterlimit:10;}
	.st6{fill:none;stroke:#000000;stroke-width:2;stroke-miterlimit:10;}
	.st7{fill:none;}
	.st8{display:none;enable-background:new    ;}
	.st9{font-family:'MyriadPro-Regular';}
	.st10{font-size:12px;}
	.st11{font-size:10px;}
	.st12{fill:#FFFFFF;}
	.st13{fill:#E0EFDB;}
</style>
<g class="st0">
	<path class="st1" d="M183.9,105.6c0,2.2-1.8,4-4,4H7.6c-2.2,0-4-1.8-4-4V8c0-2.2,1.8-4,4-4h172.3c2.2,0,4,1.8,4,4L183.9,105.6
		L183.9,105.6z"/>
	<path class="st2" d="M183.9,105.6c0,2.2-1.8,4-4,4H7.6c-2.2,0-4-1.8-4-4V8c0-2.2,1.8-4,4-4h172.3c2.2,0,4,1.8,4,4L183.9,105.6
		L183.9,105.6z"/>
</g>
<rect x="139.1" y="49.3" class="st3" width="41.7" height="43.9"/>
<polygon class="st0" points="139.1,49.4 181,49.4 139.1,93.2 "/>
<g class="st4">
	<line class="st5" x1="18" y1="22.8" x2="180" y2="22.8"/>
	<line class="st5" x1="18" y1="31.8" x2="180" y2="31.8"/>
	<line class="st5" x1="18" y1="40.8" x2="180" y2="40.8"/>
	<line class="st5" x1="18" y1="49.8" x2="180" y2="49.8"/>
	<line class="st5" x1="18" y1="58.8" x2="180" y2="58.8"/>
	<line class="st5" x1="18" y1="67.8" x2="180" y2="67.8"/>
	<line class="st5" x1="18" y1="76.8" x2="180" y2="76.8"/>
	<line class="st5" x1="18" y1="85.8" x2="180" y2="85.8"/>
	<line class="st5" x1="18" y1="94.8" x2="180" y2="94.8"/>
</g>
<line class="st6" x1="46.8" y1="18.9" x2="69.5" y2="18.9"/>
<line class="st6" x1="46.8" y1="14.5" x2="102.6" y2="14.5"/>
<line class="st6" x1="125.2" y1="106.4" x2="147.9" y2="106.4"/>
<path id="SVGID_x5F_1_x5F_" class="st7" d="M-63,102.1h171"/>
<text><textPath  xlink:href="#SVGID_x5F_1_x5F_" startOffset="13.9404%">
<tspan  style="font-family:'Hind-Regular'; font-size:7px;">Mon</tspan></textPath>
</text>
<text transform="matrix(1 0 0 1 59.6544 87.2375)" class="st8 st9 st10">**** *** **** ***</text>
<text transform="matrix(1 0 0 1 63.7111 72.1164)" class="st8 st9 st11">Balance</text>
<text transform="matrix(1 0 0 1 141.965 72.8816)" class="st8 st9 st11">$322.00</text>
<g>
	<path d="M36,90.8c0,2.2-1.8,4-4,4H22c-2.2,0-4-1.8-4-4v-10c0-2.2,1.8-4,4-4h10c2.2,0,4,1.8,4,4V90.8z"/>
	<path class="st6" d="M36,90.8c0,2.2-1.8,4-4,4H22c-2.2,0-4-1.8-4-4v-10c0-2.2,1.8-4,4-4h10c2.2,0,4,1.8,4,4V90.8z"/>
</g>
<g>
	<path class="st12" d="M63,90.8c0,2.2-1.8,4-4,4H49c-2.2,0-4-1.8-4-4v-28c0-2.2,1.8-4,4-4h10c2.2,0,4,1.8,4,4V90.8z"/>
	<path class="st6" d="M63,90.8c0,2.2-1.8,4-4,4H49c-2.2,0-4-1.8-4-4v-28c0-2.2,1.8-4,4-4h10c2.2,0,4,1.8,4,4V90.8z"/>
</g>
<g>
	<path class="st13" d="M90,90.8c0,2.2-1.8,4-4,4H76c-2.2,0-4-1.8-4-4v-46c0-2.2,1.8-4,4-4h10c2.2,0,4,1.8,4,4V90.8z"/>
	<path class="st6" d="M90,90.8c0,2.2-1.8,4-4,4H76c-2.2,0-4-1.8-4-4v-46c0-2.2,1.8-4,4-4h10c2.2,0,4,1.8,4,4V90.8z"/>
</g>
<g>
	<path d="M153,90.8c0,2.2-1.8,4-4,4h-10c-2.2,0-4-1.8-4-4v-28c0-2.2,1.8-4,4-4h10c2.2,0,4,1.8,4,4V90.8z"/>
	<path class="st6" d="M153,90.8c0,2.2-1.8,4-4,4h-10c-2.2,0-4-1.8-4-4v-28c0-2.2,1.8-4,4-4h10c2.2,0,4,1.8,4,4V90.8z"/>
</g>
<g>
	<path class="st13" d="M180,90.8c0,2.2-1.8,4-4,4h-10c-2.2,0-4-1.8-4-4v-10c0-2.2,1.8-4,4-4h10c2.2,0,4,1.8,4,4V90.8z"/>
	<path class="st6" d="M180,90.8c0,2.2-1.8,4-4,4h-10c-2.2,0-4-1.8-4-4v-10c0-2.2,1.8-4,4-4h10c2.2,0,4,1.8,4,4V90.8z"/>
</g>
<g>
	<path class="st12" d="M126,90.8c0,2.2-1.8,4-4,4h-10c-2.2,0-4-1.8-4-4v-46c0-2.2,1.8-4,4-4h10c2.2,0,4,1.8,4,4V90.8z"/>
	<path class="st6" d="M126,90.8c0,2.2-1.8,4-4,4h-10c-2.2,0-4-1.8-4-4v-46c0-2.2,1.8-4,4-4h10c2.2,0,4,1.8,4,4V90.8z"/>
</g>
<path id="SVGID_x5F_2_x5F_" class="st7" d="M-36,102.1h171"/>
<text><textPath  xlink:href="#SVGID_x5F_2_x5F_" startOffset="13.9404%">
<tspan  style="font-family:'Hind-Regular'; font-size:7px;">Mon</tspan></textPath>
</text>
<path id="SVGID_x5F_3_x5F_" class="st7" d="M-9,102.1h171"/>
<text><textPath  xlink:href="#SVGID_x5F_3_x5F_" startOffset="13.9404%">
<tspan  style="font-family:'Hind-Regular'; font-size:7px;">Wed</tspan></textPath>
</text>
<path id="SVGID_x5F_4_x5F_" class="st7" d="M27,102.1h171"/>
<text><textPath  xlink:href="#SVGID_x5F_4_x5F_" startOffset="13.9404%">
<tspan  style="font-family:'Hind-Regular'; font-size:7px;">Thr</tspan></textPath>
</text>
<path id="SVGID_x5F_5_x5F_" class="st7" d="M54,102.1h171"/>
<text><textPath  xlink:href="#SVGID_x5F_5_x5F_" startOffset="13.9404%">
<tspan  style="font-family:'Hind-Regular'; font-size:7px;">Fri</tspan></textPath>
</text>
<path id="SVGID_x5F_6_x5F_" class="st7" d="M81,102.1h171"/>
<text><textPath  xlink:href="#SVGID_x5F_6_x5F_" startOffset="13.9404%">
<tspan  style="font-family:'Hind-Regular'; font-size:7px;">Sat</tspan></textPath>
</text>
</svg>
