<?xml version="1.0" encoding="utf-8"?>
<!-- Generator: Adobe Illustrator 23.1.0, SVG Export Plug-In . SVG Version: 6.00 Build 0)  -->
<svg version="1.1" id="Capa_1" xmlns="http://www.w3.org/2000/svg" xmlns:xlink="http://www.w3.org/1999/xlink" x="0px" y="0px"
	 viewBox="0 0 43 43" style="enable-background:new 0 0 43 43;" xml:space="preserve">
<style type="text/css">
	.st0{fill:#AB9D80;}
</style>
<g>
	<g>
		<ellipse class="st0" cx="21.6" cy="28.7" rx="2.5" ry="1"/>
		<circle class="st0" cx="28.3" cy="24.5" r="2.2"/>
		<circle class="st0" cx="14.7" cy="24.5" r="2.2"/>
		<path class="st0" d="M40.6,20.9c1.2-1.4,1.6-4.4,0.8-7.5c-1-4.1-3.5-7-5.7-6.5c-0.6,0.1-1.1,0.5-1.4,1c-1-3.5-4.7-7.6-10.8-7.6
			c-5.8,0-14.7,4-18.5,7.2c-1.3,1.1-2.7,3.2-3.3,5.8c-0.7,3.1-0.4,6,0.8,7.4C1,22,0,23.9,0,26.1c0,3,1.9,5.5,4.5,6.3
			c3.3,6.2,9.8,10.3,17.1,10.3c7.3,0,13.8-4,17.1-10.3c2.5-0.8,4.4-3.3,4.4-6.3C43,24,42.1,22.1,40.6,20.9z M24.6,38
			c-0.7-0.4-1.8-0.7-3-0.7c-1.3,0-2.4,0.3-3,0.7v-2.8h6.1V38L24.6,38z M36.8,28.6c-0.3,0-0.6-0.1-0.8-0.2c-0.3,0.8-0.6,1.5-1,2.2
			c-1.3,0.1-3.3,1-5.1,2.7c-0.4,0.4-0.9,0.8-1.2,1.2v-1.4c0-1.1-0.9-2-2-2H16.5c-1.1,0-2,0.9-2,2v1.4c-0.4-0.4-0.8-0.8-1.2-1.2
			c-1.9-1.7-3.9-2.7-5.2-2.7c-0.4-0.7-0.7-1.5-1-2.2c-0.3,0.1-0.6,0.2-0.9,0.2C5,28.6,4,27.5,4,26.1s1-2.6,2.2-2.6c0,0,0,0,0.1,0
			c0-0.7,0.1-1.7,0.2-2.6C7.5,20,8.4,18.7,9,17c1.4,2,4.5,4,11.2,4.7c0,0-0.7-4.9,11.1-5.7h2.5c0.6,2.1,1.6,3.8,2.8,4.8
			c0.1,1,0.2,1.9,0.2,2.7c0,0,0,0,0,0c1.2,0,2.2,1.1,2.2,2.6S38,28.6,36.8,28.6z"/>
	</g>
</g>
</svg>
