<?xml version="1.0" encoding="utf-8"?>
<!-- Generator: Adobe Illustrator 23.1.0, SVG Export Plug-In . SVG Version: 6.00 Build 0)  -->
<svg version="1.1" id="Layer_1" xmlns="http://www.w3.org/2000/svg" xmlns:xlink="http://www.w3.org/1999/xlink" x="0px" y="0px"
	 viewBox="0 0 118.9 132.3" style="enable-background:new 0 0 118.9 132.3;" xml:space="preserve">
<style type="text/css">
	.st0{fill:none;}
	.st1{fill:#010101;}
	.st2{display:none;fill:#010101;enable-background:new    ;}
	.st3{font-family:'ArialMT';}
	.st4{font-size:12px;}
</style>
<g>
	<g>
		<line class="st0" x1="36.7" y1="51" x2="36.7" y2="50.3"/>
		<path class="st1" d="M59,52.5c-2.7-3-6-5.3-9.9-6.9c-4-1.5-9.2-3.1-15.6-4.7c-5.4-1.3-9.8-2.6-13-3.7c-3.2-1.1-5.9-2.8-8-4.9
			c-2.1-2.1-3.2-5-3.2-8.5c0-4.7,1.9-8.5,5.8-11.5c3.9-3,9.7-4.5,17.4-4.5c4,0,8.1,0.6,12.3,1.8c4.2,1.2,8.1,3,11.8,5.5l3.1-7.4
			C56.2,5.4,52,3.5,47.2,2.1C42.4,0.7,37.4,0,32.4,0c-7.2,0-13.2,1.1-18.1,3.3C9.5,5.4,5.9,8.4,3.5,12C1.2,15.6,0,19.7,0,24.1
			c0,5.4,1.4,9.8,4.2,12.9c2.8,3.2,6.2,5.6,10.1,7.1c3.9,1.6,9.2,3.2,15.8,4.8c5.5,1.3,9.8,2.6,12.9,3.7c0.8,0.3,1.5,0.6,2.2,0.9"/>
		<path class="st1" d="M58.4,52.6c0.1,0,0.2,0,0.3,0"/>
		<path class="st1" d="M56.7,52.5"/>
		<path class="st1" d="M55.7,52.6c0.1,0,0.2,0,0.4,0"/>
		<path class="st1" d="M54.5,52.5c0.1,0,0.2,0,0.3,0"/>
	</g>
	<text transform="matrix(1 0 0 1 11.5952 67.1445)" class="st2 st3 st4">D</text>
	<g>
		<path class="st1" d="M45.5,44.4h26.3c9.3,0,17.5,1.9,24.6,5.6c7.1,3.7,12.6,8.9,16.6,15.6c3.9,6.7,5.9,14.3,5.9,22.8
			c0,8.5-2,16.1-5.9,22.8c-3.9,6.7-9.5,11.9-16.6,15.6c-7.1,3.7-15.3,5.6-24.6,5.6H35.9V51.5 M71.3,124.3c7.7,0,14.4-1.5,20.2-4.6
			c5.8-3.1,10.3-7.3,13.4-12.7c3.2-5.4,4.8-11.6,4.8-18.7s-1.6-13.3-4.8-18.7c-3.2-5.4-7.7-9.6-13.4-12.7C85.7,54,79,52.4,71.3,52.4
			h-26v71.9L71.3,124.3L71.3,124.3z"/>
		<line class="st0" x1="36" y1="51.5" x2="36" y2="50.5"/>
		<path class="st1" d="M45.5,44.4"/>
	</g>
	<path class="st1" d="M34.4,43.9"/>
</g>
</svg>
