<?xml version="1.0" encoding="utf-8"?>
<!-- Generator: Adobe Illustrator 23.1.0, SVG Export Plug-In . SVG Version: 6.00 Build 0)  -->
<svg version="1.1" id="Layer_1" xmlns="http://www.w3.org/2000/svg" xmlns:xlink="http://www.w3.org/1999/xlink" x="0px" y="0px"
	 viewBox="0 0 90 72" style="enable-background:new 0 0 90 72;" xml:space="preserve">
<style type="text/css">
	.st0{display:none;}
	.st1{display:inline;fill:#E0EFDB;}
	.st2{display:inline;fill:none;stroke:#E0EFDB;stroke-width:5;stroke-miterlimit:10;}
	.st3{display:none;fill:#FFFFFF;}
	.st4{display:none;enable-background:new    ;}
	.st5{font-family:'MyriadPro-Regular';}
	.st6{font-size:12px;}
	.st7{font-size:10px;}
	.st8{display:inline;}
	.st9{display:inline;fill:none;stroke:#000000;stroke-width:2;stroke-miterlimit:10;}
	.st10{display:inline;fill:#FFFFFF;}
	.st11{fill:none;stroke:#AB9D80;stroke-width:6;stroke-miterlimit:10;}
</style>
<g class="st0">
	<path class="st1" d="M165.9,82.8c0,2.2-1.8,4-4,4H-10.4c-2.2,0-4-1.8-4-4v-97.6c0-2.2,1.8-4,4-4h172.3c2.2,0,4,1.8,4,4L165.9,82.8
		L165.9,82.8z"/>
	<path class="st2" d="M165.9,82.8c0,2.2-1.8,4-4,4H-10.4c-2.2,0-4-1.8-4-4v-97.6c0-2.2,1.8-4,4-4h172.3c2.2,0,4,1.8,4,4L165.9,82.8
		L165.9,82.8z"/>
</g>
<rect x="121.1" y="26.5" class="st3" width="41.7" height="43.9"/>
<polygon class="st0" points="121.1,26.6 163,26.6 121.1,70.4 "/>
<text transform="matrix(1 0 0 1 41.6544 64.4375)" class="st4 st5 st6">**** *** **** ***</text>
<text transform="matrix(1 0 0 1 45.7111 49.3164)" class="st4 st5 st7">Balance</text>
<text transform="matrix(1 0 0 1 123.965 50.0816)" class="st4 st5 st7">$322.00</text>
<g class="st0">
	<path class="st8" d="M18,68c0,2.2-1.8,4-4,4H4c-2.2,0-4-1.8-4-4V58c0-2.2,1.8-4,4-4h10c2.2,0,4,1.8,4,4V68z"/>
	<path class="st9" d="M18,68c0,2.2-1.8,4-4,4H4c-2.2,0-4-1.8-4-4V58c0-2.2,1.8-4,4-4h10c2.2,0,4,1.8,4,4V68z"/>
</g>
<g class="st0">
	<path class="st10" d="M45,68c0,2.2-1.8,4-4,4H31c-2.2,0-4-1.8-4-4V40c0-2.2,1.8-4,4-4h10c2.2,0,4,1.8,4,4V68z"/>
	<path class="st9" d="M45,68c0,2.2-1.8,4-4,4H31c-2.2,0-4-1.8-4-4V40c0-2.2,1.8-4,4-4h10c2.2,0,4,1.8,4,4V68z"/>
</g>
<g class="st0">
	<path class="st1" d="M72,68c0,2.2-1.8,4-4,4H58c-2.2,0-4-1.8-4-4V22c0-2.2,1.8-4,4-4h10c2.2,0,4,1.8,4,4V68z"/>
	<path class="st9" d="M72,68c0,2.2-1.8,4-4,4H58c-2.2,0-4-1.8-4-4V22c0-2.2,1.8-4,4-4h10c2.2,0,4,1.8,4,4V68z"/>
</g>
<g class="st0">
	<path class="st8" d="M135,68c0,2.2-1.8,4-4,4h-10c-2.2,0-4-1.8-4-4V40c0-2.2,1.8-4,4-4h10c2.2,0,4,1.8,4,4V68z"/>
	<path class="st9" d="M135,68c0,2.2-1.8,4-4,4h-10c-2.2,0-4-1.8-4-4V40c0-2.2,1.8-4,4-4h10c2.2,0,4,1.8,4,4V68z"/>
</g>
<g class="st0">
	<path class="st1" d="M162,68c0,2.2-1.8,4-4,4h-10c-2.2,0-4-1.8-4-4V58c0-2.2,1.8-4,4-4h10c2.2,0,4,1.8,4,4V68z"/>
	<path class="st9" d="M162,68c0,2.2-1.8,4-4,4h-10c-2.2,0-4-1.8-4-4V58c0-2.2,1.8-4,4-4h10c2.2,0,4,1.8,4,4V68z"/>
</g>
<g class="st0">
	<path class="st10" d="M108,68c0,2.2-1.8,4-4,4H94c-2.2,0-4-1.8-4-4V22c0-2.2,1.8-4,4-4h10c2.2,0,4,1.8,4,4V68z"/>
	<path class="st9" d="M108,68c0,2.2-1.8,4-4,4H94c-2.2,0-4-1.8-4-4V22c0-2.2,1.8-4,4-4h10c2.2,0,4,1.8,4,4V68z"/>
</g>
<g>
	<path d="M151.1,74.8v0.6c-0.3-0.2-0.6-0.3-1-0.3c-0.3,0-0.5,0.1-0.7,0.2s-0.3,0.3-0.3,0.5c0,0.1,0,0.2,0.1,0.3
		c0,0.1,0.1,0.2,0.2,0.2c0.1,0.1,0.2,0.1,0.3,0.2c0.1,0,0.2,0.1,0.4,0.2s0.3,0.1,0.4,0.2c0.1,0,0.2,0.1,0.3,0.2s0.2,0.2,0.3,0.3
		c0.1,0.1,0.1,0.2,0.2,0.3s0.1,0.3,0.1,0.4c0,0.4-0.1,0.7-0.4,1c-0.3,0.2-0.7,0.3-1.1,0.3c-0.5,0-0.9-0.1-1.3-0.3v-0.6
		c0.3,0.3,0.8,0.4,1.2,0.4c0.3,0,0.5-0.1,0.7-0.2s0.3-0.3,0.3-0.6c0-0.1,0-0.2-0.1-0.3c0-0.1-0.1-0.2-0.2-0.2
		c-0.1-0.1-0.2-0.1-0.3-0.2c-0.1,0-0.2-0.1-0.3-0.2c0,0-0.1,0-0.1-0.1c-0.2-0.1-0.4-0.2-0.5-0.2c-0.1-0.1-0.2-0.1-0.4-0.2
		c-0.1-0.1-0.2-0.2-0.3-0.4c-0.1-0.1-0.1-0.3-0.1-0.5c0-0.4,0.1-0.7,0.4-0.9c0.3-0.2,0.6-0.3,1.1-0.3
		C150.5,74.5,150.9,74.6,151.1,74.8z"/>
	<path d="M152.4,76.5v-0.6c0.3-0.2,0.6-0.2,1-0.2c0.9,0,1.3,0.5,1.3,1.4v2.2h-0.5v-0.4c-0.2,0.3-0.5,0.5-1,0.5
		c-0.3,0-0.6-0.1-0.8-0.3c-0.2-0.2-0.3-0.4-0.3-0.7c0-0.3,0.1-0.6,0.4-0.8c0.3-0.2,0.6-0.3,1.1-0.3h0.6V77c0-0.3-0.1-0.5-0.2-0.6
		s-0.3-0.2-0.6-0.2C153,76.2,152.7,76.3,152.4,76.5z M154.2,77.7h-0.6c-0.3,0-0.5,0.1-0.7,0.2c-0.1,0.1-0.2,0.3-0.2,0.4
		c0,0.2,0.1,0.3,0.2,0.4c0.1,0.1,0.3,0.2,0.5,0.2c0.3,0,0.5-0.1,0.6-0.2s0.2-0.3,0.2-0.5V77.7z"/>
	<path d="M156.5,76.2v2.1c0,0.4,0.2,0.6,0.5,0.6c0.2,0,0.3-0.1,0.5-0.2v0.5c-0.2,0.1-0.3,0.1-0.5,0.1c-0.7,0-1.1-0.4-1.1-1.1v-2.1
		h-0.6v-0.4h0.6v-0.9h0.6v0.9h1v0.4L156.5,76.2L156.5,76.2z"/>
</g>
<g>
	<path class="st11" d="M27,18l26.2,17.4c0.5,0.3,0.5,0.8,0,1.1L27,54"/>
</g>
</svg>
