<?xml version="1.0" encoding="utf-8"?>
<!-- Generator: Adobe Illustrator 23.1.0, SVG Export Plug-In . SVG Version: 6.00 Build 0)  -->
<svg version="1.1" id="Layer_1" xmlns="http://www.w3.org/2000/svg" xmlns:xlink="http://www.w3.org/1999/xlink" x="0px" y="0px"
	 viewBox="0 0 185.3 110.6" style="enable-background:new 0 0 185.3 110.6;" xml:space="preserve">
<style type="text/css">
	.st0{fill:#CAE5CB;}
	.st1{fill:none;stroke:#CAE5CB;stroke-width:5;stroke-miterlimit:10;}
	.st2{stroke:#000000;stroke-width:2;stroke-miterlimit:10;}
	.st3{display:none;fill:#FFFFFF;}
	.st4{display:none;}
	.st5{fill:#FFFFFF;}
	.st6{fill:#FFFFFF;stroke:#000000;stroke-width:2;stroke-miterlimit:10;}
	.st7{font-family:'MyriadPro-Regular';}
	.st8{font-size:12px;}
	.st9{font-size:10px;}
</style>
<g>
	<path class="st0" d="M182.8,104.1c0,2.2-1.8,4-4,4H6.5c-2.2,0-4-1.8-4-4V6.5c0-2.2,1.8-4,4-4h172.3c2.2,0,4,1.8,4,4V104.1z"/>
	<path class="st1" d="M182.8,104.1c0,2.2-1.8,4-4,4H6.5c-2.2,0-4-1.8-4-4V6.5c0-2.2,1.8-4,4-4h172.3c2.2,0,4,1.8,4,4V104.1z"/>
</g>
<g>
	<path d="M39.5,2.7v37.1H4.4V2.7H39.5 M41.5,0.7H2.4v41.1h39.1V0.7L41.5,0.7z"/>
</g>
<rect x="50.2" y="21.6" class="st2" width="19.9" height="21"/>
<rect x="138" y="47.9" class="st3" width="41.7" height="43.9"/>
<polygon class="st4" points="138,47.9 179.8,47.9 138,91.7 "/>
<line class="st2" x1="45.7" y1="17.4" x2="68.4" y2="17.4"/>
<line class="st2" x1="68.4" y1="52.3" x2="124.1" y2="52.3"/>
<line class="st2" x1="45.7" y1="13" x2="101.5" y2="13"/>
<line class="st2" x1="124.1" y1="105" x2="146.7" y2="105"/>
<line class="st2" x1="124.1" y1="100.6" x2="179.8" y2="100.6"/>
<g>
	<rect x="12.9" y="57.2" width="2.5" height="3.4"/>
	<path d="M14.9,57.7v2.4h-1.5v-2.4H14.9 M15.9,56.7h-3.5v4.4h3.5V56.7L15.9,56.7z"/>
</g>
<g>
	<rect x="9.4" y="61.6" width="2.5" height="3.4"/>
	<path d="M11.4,62.1v2.4H9.9v-2.4H11.4 M12.4,61.1H8.9v4.4h3.5V61.1L12.4,61.1z"/>
</g>
<g>
	<rect x="16.4" y="61.6" width="2.5" height="3.4"/>
	<path d="M18.4,62.1v2.4h-1.5v-2.4H18.4 M19.4,61.1h-3.5v4.4h3.5V61.1L19.4,61.1z"/>
</g>
<g>
	<rect x="12.9" y="65.9" width="2.5" height="3.4"/>
	<path d="M14.9,66.4v2.4h-1.5v-2.4H14.9 M15.9,65.4h-3.5v4.4h3.5V65.4L15.9,65.4z"/>
</g>
<g>
	<rect x="16.6" y="70.3" width="2.5" height="3.4"/>
	<path d="M18.6,70.8v2.4h-1.5v-2.4H18.6 M19.6,69.8h-3.5v4.4h3.5V69.8L19.6,69.8z"/>
</g>
<g>
	<rect x="20.1" y="65.9" width="2.5" height="3.4"/>
	<path class="st5" d="M22.1,66.4v2.4h-1.5v-2.4H22.1 M23.1,65.4h-3.5v4.4h3.5V65.4L23.1,65.4z"/>
</g>
<g>
	<rect x="23.6" y="70.3" width="2.5" height="3.4"/>
	<path class="st5" d="M25.5,70.8v2.4h-1.5v-2.4H25.5 M26.5,69.8h-3.5v4.4h3.5V69.8L26.5,69.8z"/>
</g>
<g>
	<rect x="19.9" y="74.7" width="2.5" height="3.4"/>
	<path d="M21.9,75.2v2.4h-1.5v-2.4H21.9 M22.9,74.2h-3.5v4.4h3.5V74.2L22.9,74.2z"/>
</g>
<g>
	<rect x="27" y="74.7" width="2.5" height="3.4"/>
	<path d="M29,75.2v2.4h-1.5v-2.4H29 M30,74.2h-3.5v4.4H30V74.2L30,74.2z"/>
</g>
<g>
	<rect x="23.4" y="79.1" width="2.5" height="3.4"/>
	<path d="M25.4,79.6V82h-1.5v-2.4H25.4 M26.4,78.6h-3.5V83h3.5V78.6L26.4,78.6z"/>
</g>
<g>
	<rect x="30.5" y="79.1" width="2.5" height="3.4"/>
	<path d="M32.5,79.6V82H31v-2.4H32.5 M33.5,78.6H30V83h3.5V78.6L33.5,78.6z"/>
</g>
<g>
	<rect x="27" y="83.5" width="2.5" height="3.4"/>
	<path d="M29,84v2.4h-1.5V84H29 M30,83h-3.5v4.4H30V83L30,83z"/>
</g>
<g>
	<rect x="23.4" y="87.8" width="2.5" height="3.4"/>
	<path d="M25.4,88.3v2.4h-1.5v-2.4H25.4 M26.4,87.3h-3.5v4.4h3.5V87.3L26.4,87.3z"/>
</g>
<g>
	<rect x="19.9" y="83.5" width="2.5" height="3.4"/>
	<path d="M21.9,84v2.4h-1.5V84H21.9 M22.9,83h-3.5v4.4h3.5V83L22.9,83z"/>
</g>
<g>
	<rect x="16.4" y="79.1" width="2.5" height="3.4"/>
	<path d="M18.4,79.6V82h-1.5v-2.4H18.4 M19.4,78.6h-3.5V83h3.5V78.6L19.4,78.6z"/>
</g>
<g>
	<rect x="12.9" y="74.7" width="2.5" height="3.4"/>
	<path d="M14.9,75.2v2.4h-1.5v-2.4H14.9 M15.9,74.2h-3.5v4.4h3.5V74.2L15.9,74.2z"/>
</g>
<g>
	<rect x="9.4" y="70.3" width="2.5" height="3.4"/>
	<path d="M11.4,70.8v2.4H9.9v-2.4H11.4 M12.4,69.8H8.9v4.4h3.5V69.8L12.4,69.8z"/>
</g>
<g>
	<rect x="5.9" y="65.9" width="2.5" height="3.4"/>
	<path d="M7.9,66.4v2.4H6.4v-2.4H7.9 M8.9,65.4H5.4v4.4h3.5V65.4L8.9,65.4z"/>
</g>
<g>
	<rect x="2.5" y="70.3" width="2.5" height="3.4"/>
	<path d="M4.4,70.8v2.4H3v-2.4H4.4 M5.4,69.8H2v4.4h3.5V69.8L5.4,69.8z"/>
</g>
<g>
	<rect x="5.9" y="74.7" width="2.5" height="3.4"/>
	<path d="M7.9,75.2v2.4H6.4v-2.4H7.9 M8.9,74.2H5.4v4.4h3.5V74.2L8.9,74.2z"/>
</g>
<g>
	<rect x="9.4" y="79.1" width="2.5" height="3.4"/>
	<path d="M11.4,79.6V82H9.9v-2.4H11.4 M12.4,78.6H8.9V83h3.5V78.6L12.4,78.6z"/>
</g>
<g>
	<rect x="12.9" y="83.5" width="2.5" height="3.4"/>
	<path d="M14.9,84v2.4h-1.5V84H14.9 M15.9,83h-3.5v4.4h3.5V83L15.9,83z"/>
</g>
<g>
	<rect x="16.4" y="87.8" width="2.5" height="3.4"/>
	<path d="M18.4,88.3v2.4h-1.5v-2.4H18.4 M19.4,87.3h-3.5v4.4h3.5V87.3L19.4,87.3z"/>
</g>
<g>
	<rect x="19.9" y="92.2" width="2.5" height="3.4"/>
	<path d="M21.9,92.7v2.4h-1.5v-2.4H21.9 M22.9,91.7h-3.5v4.4h3.5V91.7L22.9,91.7z"/>
</g>
<g>
	<rect x="16.4" y="96.6" width="2.5" height="3.4"/>
	<path d="M18.4,97.1v2.4h-1.5v-2.4H18.4 M19.4,96.1h-3.5v4.4h3.5V96.1L19.4,96.1z"/>
</g>
<g>
	<rect x="12.9" y="92.2" width="2.5" height="3.4"/>
	<path d="M14.9,92.7v2.4h-1.5v-2.4H14.9 M15.9,91.7h-3.5v4.4h3.5V91.7L15.9,91.7z"/>
</g>
<g>
	<rect x="9.4" y="87.8" width="2.5" height="3.4"/>
	<path d="M11.4,88.3v2.4H9.9v-2.4H11.4 M12.4,87.3H8.9v4.4h3.5V87.3L12.4,87.3z"/>
</g>
<g>
	<rect x="5.9" y="83.5" width="2.5" height="3.4"/>
	<path d="M7.9,84v2.4H6.4V84H7.9 M8.9,83H5.4v4.4h3.5V83L8.9,83z"/>
</g>
<g>
	<rect x="2.5" y="79.1" width="2.5" height="3.4"/>
	<path d="M4.4,79.6V82H3v-2.4H4.4 M5.4,78.6H2V83h3.5V78.6L5.4,78.6z"/>
</g>
<g>
	<rect x="2.7" y="87.8" width="2.5" height="3.4"/>
	<path d="M4.6,88.3v2.4H3.2v-2.4H4.6 M5.6,87.3H2.2v4.4h3.5V87.3L5.6,87.3z"/>
</g>
<g>
	<rect x="6.1" y="92.2" width="2.5" height="3.4"/>
	<path d="M8.1,92.7v2.4H6.6v-2.4H8.1 M9.1,91.7H5.6v4.4h3.5V91.7L9.1,91.7z"/>
</g>
<g>
	<rect x="9.6" y="96.6" width="2.5" height="3.4"/>
	<path d="M11.6,97.1v2.4h-1.5v-2.4H11.6 M12.6,96.1H9.1v4.4h3.5V96.1L12.6,96.1z"/>
</g>
<g>
	<rect x="13.1" y="101" width="2.5" height="3.4"/>
	<path d="M15.1,101.5v2.4h-1.5v-2.4H15.1 M16.1,100.5h-3.5v4.4h3.5V100.5L16.1,100.5z"/>
</g>
<g>
	<rect x="9.6" y="105.4" width="2.5" height="3.4"/>
	<path d="M11.6,105.9v2.4h-1.5v-2.4H11.6 M12.6,104.9H9.1v4.4h3.5V104.9L12.6,104.9z"/>
</g>
<g>
	<rect x="5.9" y="101" width="2.5" height="3.4"/>
	<path d="M7.9,101.5v2.4H6.4v-2.4H7.9 M8.9,100.5H5.4v4.4h3.5V100.5L8.9,100.5z"/>
</g>
<g>
	<rect x="2.5" y="96.6" width="2.5" height="3.4"/>
	<path d="M4.4,97.1v2.4H3v-2.4H4.4 M5.4,96.1H2v4.4h3.5V96.1L5.4,96.1z"/>
</g>
<line class="st6" x1="19.6" y1="43.5" x2="30.1" y2="30.5"/>
<line class="st6" x1="19.6" y1="47.9" x2="33.5" y2="30.4"/>
<line class="st6" x1="19.6" y1="52.3" x2="37" y2="30.4"/>
<line class="st6" x1="19.6" y1="56.7" x2="40.5" y2="30.4"/>
<line class="st2" x1="19.6" y1="61.1" x2="44" y2="30.4"/>
<line class="st2" x1="19.6" y1="65.4" x2="47.5" y2="30.4"/>
<line class="st2" x1="19.6" y1="69.8" x2="50.9" y2="30.4"/>
<line class="st2" x1="21.3" y1="72" x2="54.4" y2="30.4"/>
<line class="st2" x1="24.8" y1="72" x2="57.9" y2="30.4"/>
<line class="st2" x1="28.3" y1="72" x2="59.6" y2="32.6"/>
<line class="st2" x1="31.8" y1="72" x2="59.6" y2="37"/>
<line class="st6" x1="35.3" y1="72" x2="59.6" y2="41.3"/>
<line class="st6" x1="38.7" y1="72" x2="59.6" y2="45.7"/>
<line class="st6" x1="42.2" y1="72" x2="59.6" y2="50.1"/>
<line class="st6" x1="45.7" y1="72" x2="59.6" y2="54.5"/>
<line class="st6" x1="49.2" y1="72" x2="59.6" y2="58.9"/>
<line class="st6" x1="52.7" y1="72" x2="59.6" y2="63.2"/>
<line class="st6" x1="56.2" y1="72" x2="59.6" y2="67.6"/>
<line class="st6" x1="19.6" y1="39.2" x2="24.8" y2="32.6"/>
<line class="st6" x1="19.6" y1="34.8" x2="23.1" y2="30.4"/>
<text transform="matrix(1 0 0 1 58.5444 85.7607)" class="st7 st8">**** *** **** ***</text>
<text transform="matrix(1 0 0 1 62.6011 70.6396)" class="st7 st9">Balance</text>
<text transform="matrix(1 0 0 1 140.855 71.4047)" class="st7 st9">$322.00</text>
</svg>
