<?xml version="1.0" encoding="utf-8"?>
<!-- Generator: Adobe Illustrator 23.1.0, SVG Export Plug-In . SVG Version: 6.00 Build 0)  -->
<svg version="1.1" id="Layer_1" xmlns="http://www.w3.org/2000/svg" xmlns:xlink="http://www.w3.org/1999/xlink" x="0px" y="0px"
	 viewBox="0 0 187.8 112.8" style="enable-background:new 0 0 187.8 112.8;" xml:space="preserve">
<style type="text/css">
	.st0{fill:#BBDFBB;}
	.st1{fill:none;stroke:#BBDFBB;stroke-width:5;stroke-miterlimit:10;}
	.st2{stroke:#000000;stroke-width:2;stroke-miterlimit:10;}
	.st3{display:none;fill:#FFFFFF;}
	.st4{display:none;}
	.st5{fill:#FFFFFF;}
	.st6{fill:#FFFFFF;stroke:#000000;stroke-width:2;stroke-miterlimit:10;}
	.st7{font-family:'MyriadPro-Regular';}
	.st8{font-size:12px;}
	.st9{font-size:10px;}
</style>
<g>
	<path class="st0" d="M183.9,105.6c0,2.2-1.8,4-4,4H7.6c-2.2,0-4-1.8-4-4V8c0-2.2,1.8-4,4-4h172.3c2.2,0,4,1.8,4,4V105.6z"/>
	<path class="st1" d="M183.9,105.6c0,2.2-1.8,4-4,4H7.6c-2.2,0-4-1.8-4-4V8c0-2.2,1.8-4,4-4h172.3c2.2,0,4,1.8,4,4V105.6z"/>
</g>
<g>
	<path d="M40.6,4.2v37.1H5.5V4.2H40.6 M42.6,2.2H3.5v41.1h39.1V2.2L42.6,2.2z"/>
</g>
<rect x="51.3" y="23.1" class="st2" width="19.9" height="21"/>
<rect x="139.1" y="49.3" class="st3" width="41.7" height="43.9"/>
<polygon class="st4" points="139.1,49.4 181,49.4 139.1,93.2 "/>
<line class="st2" x1="46.8" y1="18.9" x2="69.5" y2="18.9"/>
<line class="st2" x1="69.5" y1="53.8" x2="125.2" y2="53.8"/>
<line class="st2" x1="46.8" y1="14.5" x2="102.6" y2="14.5"/>
<line class="st2" x1="125.2" y1="106.4" x2="147.9" y2="106.4"/>
<line class="st2" x1="125.2" y1="102.1" x2="181" y2="102.1"/>
<g>
	<rect x="14" y="58.6" width="2.5" height="3.4"/>
	<path d="M16,59.1v2.4h-1.5v-2.4H16 M17,58.1h-3.5v4.4H17V58.1L17,58.1z"/>
</g>
<g>
	<rect x="10.5" y="63" width="2.5" height="3.4"/>
	<path d="M12.5,63.5v2.4H11v-2.4H12.5 M13.5,62.5H10v4.4h3.5V62.5L13.5,62.5z"/>
</g>
<g>
	<rect x="17.5" y="63" width="2.5" height="3.4"/>
	<path d="M19.5,63.5v2.4H18v-2.4H19.5 M20.5,62.5H17v4.4h3.5V62.5L20.5,62.5z"/>
</g>
<g>
	<rect x="14" y="67.4" width="2.5" height="3.4"/>
	<path d="M16,67.9v2.4h-1.5v-2.4H16 M17,66.9h-3.5v4.4H17V66.9L17,66.9z"/>
</g>
<g>
	<rect x="17.7" y="71.8" width="2.5" height="3.4"/>
	<path d="M19.7,72.3v2.4h-1.5v-2.4H19.7 M20.7,71.3h-3.5v4.4h3.5V71.3L20.7,71.3z"/>
</g>
<g>
	<rect x="21.2" y="67.4" width="2.5" height="3.4"/>
	<path class="st5" d="M23.2,67.9v2.4h-1.5v-2.4H23.2 M24.2,66.9h-3.5v4.4h3.5V66.9L24.2,66.9z"/>
</g>
<g>
	<rect x="24.7" y="71.8" width="2.5" height="3.4"/>
	<path class="st5" d="M26.7,72.3v2.4h-1.5v-2.4H26.7 M27.7,71.3h-3.5v4.4h3.5V71.3L27.7,71.3z"/>
</g>
<g>
	<rect x="21" y="76.2" width="2.5" height="3.4"/>
	<path d="M23,76.7V79h-1.5v-2.4H23 M24,75.7h-3.5V80H24V75.7L24,75.7z"/>
</g>
<g>
	<rect x="28.2" y="76.2" width="2.5" height="3.4"/>
	<path d="M30.1,76.7V79h-1.5v-2.4H30.1 M31.1,75.7h-3.5V80h3.5V75.7L31.1,75.7z"/>
</g>
<g>
	<rect x="24.5" y="80.5" width="2.5" height="3.4"/>
	<path d="M26.5,81v2.4H25V81H26.5 M27.5,80H24v4.4h3.5V80L27.5,80z"/>
</g>
<g>
	<rect x="31.6" y="80.5" width="2.5" height="3.4"/>
	<path d="M33.6,81v2.4h-1.5V81H33.6 M34.6,80h-3.5v4.4h3.5V80L34.6,80z"/>
</g>
<g>
	<rect x="28.2" y="84.9" width="2.5" height="3.4"/>
	<path d="M30.1,85.4v2.4h-1.5v-2.4H30.1 M31.1,84.4h-3.5v4.4h3.5V84.4L31.1,84.4z"/>
</g>
<g>
	<rect x="24.5" y="89.3" width="2.5" height="3.4"/>
	<path d="M26.5,89.8v2.4H25v-2.4H26.5 M27.5,88.8H24v4.4h3.5V88.8L27.5,88.8z"/>
</g>
<g>
	<rect x="21" y="84.9" width="2.5" height="3.4"/>
	<path d="M23,85.4v2.4h-1.5v-2.4H23 M24,84.4h-3.5v4.4H24V84.4L24,84.4z"/>
</g>
<g>
	<rect x="17.5" y="80.5" width="2.5" height="3.4"/>
	<path d="M19.5,81v2.4H18V81H19.5 M20.5,80H17v4.4h3.5V80L20.5,80z"/>
</g>
<g>
	<rect x="14" y="76.2" width="2.5" height="3.4"/>
	<path d="M16,76.7V79h-1.5v-2.4H16 M17,75.7h-3.5V80H17V75.7L17,75.7z"/>
</g>
<g>
	<rect x="10.5" y="71.8" width="2.5" height="3.4"/>
	<path d="M12.5,72.3v2.4H11v-2.4H12.5 M13.5,71.3H10v4.4h3.5V71.3L13.5,71.3z"/>
</g>
<g>
	<rect x="7.1" y="67.4" width="2.5" height="3.4"/>
	<path d="M9,67.9v2.4H7.6v-2.4H9 M10,66.9H6.6v4.4H10V66.9L10,66.9z"/>
</g>
<g>
	<rect x="3.6" y="71.8" width="2.5" height="3.4"/>
	<path d="M5.6,72.3v2.4H4.1v-2.4H5.6 M6.6,71.3H3.1v4.4h3.5V71.3L6.6,71.3z"/>
</g>
<g>
	<rect x="7.1" y="76.2" width="2.5" height="3.4"/>
	<path d="M9,76.7V79H7.6v-2.4H9 M10,75.7H6.6V80H10V75.7L10,75.7z"/>
</g>
<g>
	<rect x="10.5" y="80.5" width="2.5" height="3.4"/>
	<path d="M12.5,81v2.4H11V81H12.5 M13.5,80H10v4.4h3.5V80L13.5,80z"/>
</g>
<g>
	<rect x="14" y="84.9" width="2.5" height="3.4"/>
	<path d="M16,85.4v2.4h-1.5v-2.4H16 M17,84.4h-3.5v4.4H17V84.4L17,84.4z"/>
</g>
<g>
	<rect x="17.5" y="89.3" width="2.5" height="3.4"/>
	<path d="M19.5,89.8v2.4H18v-2.4H19.5 M20.5,88.8H17v4.4h3.5V88.8L20.5,88.8z"/>
</g>
<g>
	<rect x="21" y="93.7" width="2.5" height="3.4"/>
	<path d="M23,94.2v2.4h-1.5v-2.4H23 M24,93.2h-3.5v4.4H24V93.2L24,93.2z"/>
</g>
<g>
	<rect x="17.5" y="98.1" width="2.5" height="3.4"/>
	<path d="M19.5,98.6v2.4H18v-2.4H19.5 M20.5,97.6H17v4.4h3.5V97.6L20.5,97.6z"/>
</g>
<g>
	<rect x="14" y="93.7" width="2.5" height="3.4"/>
	<path d="M16,94.2v2.4h-1.5v-2.4H16 M17,93.2h-3.5v4.4H17V93.2L17,93.2z"/>
</g>
<g>
	<rect x="10.5" y="89.3" width="2.5" height="3.4"/>
	<path d="M12.5,89.8v2.4H11v-2.4H12.5 M13.5,88.8H10v4.4h3.5V88.8L13.5,88.8z"/>
</g>
<g>
	<rect x="7.1" y="84.9" width="2.5" height="3.4"/>
	<path d="M9,85.4v2.4H7.6v-2.4H9 M10,84.4H6.6v4.4H10V84.4L10,84.4z"/>
</g>
<g>
	<rect x="3.6" y="80.5" width="2.5" height="3.4"/>
	<path d="M5.6,81v2.4H4.1V81H5.6 M6.6,80H3.1v4.4h3.5V80L6.6,80z"/>
</g>
<g>
	<rect x="3.8" y="89.3" width="2.5" height="3.4"/>
	<path d="M5.8,89.8v2.4H4.3v-2.4H5.8 M6.8,88.8H3.3v4.4h3.5V88.8L6.8,88.8z"/>
</g>
<g>
	<rect x="7.3" y="93.7" width="2.5" height="3.4"/>
	<path d="M9.2,94.2v2.4H7.8v-2.4H9.2 M10.2,93.2H6.8v4.4h3.5V93.2L10.2,93.2z"/>
</g>
<g>
	<rect x="10.7" y="98.1" width="2.5" height="3.4"/>
	<path d="M12.7,98.6v2.4h-1.5v-2.4H12.7 M13.7,97.6h-3.5v4.4h3.5V97.6L13.7,97.6z"/>
</g>
<g>
	<rect x="14.2" y="102.4" width="2.5" height="3.4"/>
	<path d="M16.2,102.9v2.4h-1.5v-2.4H16.2 M17.2,101.9h-3.5v4.4h3.5V101.9L17.2,101.9z"/>
</g>
<g>
	<rect x="10.7" y="106.8" width="2.5" height="3.4"/>
	<path d="M12.7,107.3v2.4h-1.5v-2.4H12.7 M13.7,106.3h-3.5v4.4h3.5V106.3L13.7,106.3z"/>
</g>
<g>
	<rect x="7.1" y="102.4" width="2.5" height="3.4"/>
	<path d="M9,102.9v2.4H7.6v-2.4H9 M10,101.9H6.6v4.4H10V101.9L10,101.9z"/>
</g>
<g>
	<rect x="3.6" y="98.1" width="2.5" height="3.4"/>
	<path d="M5.6,98.6v2.4H4.1v-2.4H5.6 M6.6,97.6H3.1v4.4h3.5V97.6L6.6,97.6z"/>
</g>
<line class="st6" x1="20.7" y1="45" x2="31.2" y2="32"/>
<line class="st6" x1="20.7" y1="49.4" x2="34.6" y2="31.9"/>
<line class="st6" x1="20.7" y1="53.8" x2="38.1" y2="31.9"/>
<line class="st6" x1="20.7" y1="58.1" x2="41.6" y2="31.9"/>
<line class="st2" x1="20.7" y1="62.5" x2="45.1" y2="31.9"/>
<line class="st2" x1="20.7" y1="66.9" x2="48.6" y2="31.9"/>
<line class="st2" x1="20.7" y1="71.3" x2="52" y2="31.9"/>
<line class="st2" x1="22.4" y1="73.5" x2="55.5" y2="31.9"/>
<line class="st2" x1="25.9" y1="73.5" x2="59" y2="31.9"/>
<line class="st2" x1="29.4" y1="73.5" x2="60.8" y2="34.1"/>
<line class="st2" x1="32.9" y1="73.5" x2="60.8" y2="38.4"/>
<line class="st6" x1="36.4" y1="73.5" x2="60.8" y2="42.8"/>
<line class="st6" x1="39.9" y1="73.5" x2="60.8" y2="47.2"/>
<line class="st6" x1="43.3" y1="73.5" x2="60.8" y2="51.6"/>
<line class="st6" x1="46.8" y1="73.5" x2="60.8" y2="56"/>
<line class="st6" x1="50.3" y1="73.5" x2="60.8" y2="60.3"/>
<line class="st6" x1="53.8" y1="73.5" x2="60.8" y2="64.7"/>
<line class="st6" x1="57.3" y1="73.5" x2="60.8" y2="69.1"/>
<line class="st6" x1="20.7" y1="40.6" x2="25.9" y2="34.1"/>
<line class="st6" x1="20.7" y1="36.2" x2="24.2" y2="31.9"/>
<text transform="matrix(1 0 0 1 59.6544 87.2375)" class="st7 st8">**** *** **** ***</text>
<text transform="matrix(1 0 0 1 63.7111 72.1164)" class="st7 st9">Balance</text>
<text transform="matrix(1 0 0 1 141.965 72.8816)" class="st7 st9">$322.00</text>
</svg>
