<?xml version="1.0" encoding="utf-8"?>
<!-- Generator: Adobe Illustrator 23.1.0, SVG Export Plug-In . SVG Version: 6.00 Build 0)  -->
<svg version="1.1" id="Layer_1" xmlns="http://www.w3.org/2000/svg" xmlns:xlink="http://www.w3.org/1999/xlink" x="0px" y="0px"
	 viewBox="0 0 187.8 112.8" style="enable-background:new 0 0 187.8 112.8;" xml:space="preserve">
<style type="text/css">
	.st0{fill:#E0EFDB;}
	.st1{fill:none;stroke:#E0EFDB;stroke-width:5;stroke-miterlimit:10;}
	.st2{display:none;fill:#FFFFFF;}
	.st3{display:none;}
	.st4{stroke:#000000;stroke-width:2;stroke-miterlimit:10;}
	.st5{font-family:'MyriadPro-Regular';}
	.st6{font-size:12px;}
	.st7{font-size:10px;}
</style>
<g>
	<path class="st0" d="M183.9,105.6c0,2.2-1.8,4-4,4H7.6c-2.2,0-4-1.8-4-4V8c0-2.2,1.8-4,4-4h172.3c2.2,0,4,1.8,4,4V105.6z"/>
	<path class="st1" d="M183.9,105.6c0,2.2-1.8,4-4,4H7.6c-2.2,0-4-1.8-4-4V8c0-2.2,1.8-4,4-4h172.3c2.2,0,4,1.8,4,4V105.6z"/>
</g>
<g>
	<path d="M40.6,4.2v37.1H5.5V4.2H40.6 M42.6,2.2H3.5v41.1h39.1V2.2L42.6,2.2z"/>
</g>
<rect x="139.1" y="49.3" class="st2" width="41.7" height="43.9"/>
<polygon class="st3" points="139.1,49.4 181,49.4 139.1,93.2 "/>
<line class="st4" x1="46.8" y1="18.9" x2="69.5" y2="18.9"/>
<line class="st4" x1="46.8" y1="14.5" x2="102.6" y2="14.5"/>
<line class="st4" x1="125.2" y1="106.4" x2="147.9" y2="106.4"/>
<line class="st4" x1="125.2" y1="102.1" x2="181" y2="102.1"/>
<text transform="matrix(1 0 0 1 59.6544 87.2375)" class="st5 st6">**** *** **** ***</text>
<text transform="matrix(1 0 0 1 63.7111 72.1164)" class="st5 st7">Balance</text>
<text transform="matrix(1 0 0 1 141.965 72.8816)" class="st5 st7">$322.00</text>
</svg>
