<?xml version="1.0" encoding="utf-8"?>
<!-- Generator: Adobe Illustrator 23.1.0, SVG Export Plug-In . SVG Version: 6.00 Build 0)  -->
<svg version="1.1" xmlns="http://www.w3.org/2000/svg" xmlns:xlink="http://www.w3.org/1999/xlink" x="0px" y="0px"
	 viewBox="0 0 936 495" style="enable-background:new 0 0 936 495;" xml:space="preserve">
<style type="text/css">
	.st0{fill:#88E2A1;}
	.st1{fill:#88E2A1;stroke:#88E2A1;stroke-width:5;stroke-miterlimit:10;}
	.st2{fill:#FFFFFF;}
	.st3{fill:#FFFFFF;stroke:#88E2A1;stroke-width:5;stroke-miterlimit:10;}
</style>
<g id="Layer_1">
	<g>
		<path class="st0" d="M216,27v159H24V27H216 M221,22H19v169h202V22L221,22z"/>
	</g>
	<rect x="266" y="107.8" class="st1" width="103" height="86.2"/>
</g>
<g id="Layer_3">
	<g>
		<rect x="71.5" y="252.5" class="st2" width="17" height="17"/>
		<path class="st0" d="M88,253v16H72v-16H88 M89,252H71v18h18V252L89,252z"/>
	</g>
	<g>
		<rect x="53.5" y="270.5" class="st2" width="17" height="17"/>
		<path class="st0" d="M70,271v16H54v-16H70 M71,270H53v18h18V270L71,270z"/>
	</g>
	<g>
		<rect x="89.5" y="270.5" class="st2" width="17" height="17"/>
		<path class="st0" d="M106,271v16H90v-16H106 M107,270H89v18h18V270L107,270z"/>
	</g>
	<g>
		<rect x="71.5" y="288.5" class="st2" width="17" height="17"/>
		<path class="st0" d="M88,289v16H72v-16H88 M89,288H71v18h18V288L89,288z"/>
	</g>
	<g>
		<rect x="90.5" y="306.5" class="st2" width="17" height="17"/>
		<path class="st0" d="M107,307v16H91v-16H107 M108,306H90v18h18V306L108,306z"/>
	</g>
	<g>
		<rect x="108.5" y="288.5" class="st2" width="17" height="17"/>
		<path class="st0" d="M125,289v16h-16v-16H125 M126,288h-18v18h18V288L126,288z"/>
	</g>
	<g>
		<rect x="126.5" y="306.5" class="st2" width="17" height="17"/>
		<path class="st0" d="M143,307v16h-16v-16H143 M144,306h-18v18h18V306L144,306z"/>
	</g>
	<g>
		<rect x="107.5" y="324.5" class="st2" width="17" height="17"/>
		<path class="st0" d="M124,325v16h-16v-16H124 M125,324h-18v18h18V324L125,324z"/>
	</g>
	<g>
		<rect x="144.5" y="324.5" class="st2" width="17" height="17"/>
		<path class="st0" d="M161,325v16h-16v-16H161 M162,324h-18v18h18V324L162,324z"/>
	</g>
	<g>
		<rect x="125.5" y="342.5" class="st2" width="17" height="17"/>
		<path class="st0" d="M142,343v16h-16v-16H142 M143,342h-18v18h18V342L143,342z"/>
	</g>
	<g>
		<rect x="162.5" y="342.5" class="st2" width="17" height="17"/>
		<path class="st0" d="M179,343v16h-16v-16H179 M180,342h-18v18h18V342L180,342z"/>
	</g>
	<g>
		<rect x="144.5" y="360.5" class="st2" width="17" height="17"/>
		<path class="st0" d="M161,361v16h-16v-16H161 M162,360h-18v18h18V360L162,360z"/>
	</g>
	<g>
		<rect x="125.5" y="378.5" class="st2" width="17" height="17"/>
		<path class="st0" d="M142,379v16h-16v-16H142 M143,378h-18v18h18V378L143,378z"/>
	</g>
	<g>
		<rect x="107.5" y="360.5" class="st2" width="17" height="17"/>
		<path class="st0" d="M124,361v16h-16v-16H124 M125,360h-18v18h18V360L125,360z"/>
	</g>
	<g>
		<rect x="89.5" y="342.5" class="st2" width="17" height="17"/>
		<path class="st0" d="M106,343v16H90v-16H106 M107,342H89v18h18V342L107,342z"/>
	</g>
	<g>
		<rect x="71.5" y="324.5" class="st2" width="17" height="17"/>
		<path class="st0" d="M88,325v16H72v-16H88 M89,324H71v18h18V324L89,324z"/>
	</g>
	<g>
		<rect x="53.5" y="306.5" class="st2" width="17" height="17"/>
		<path class="st0" d="M70,307v16H54v-16H70 M71,306H53v18h18V306L71,306z"/>
	</g>
	<g>
		<rect x="35.5" y="288.5" class="st2" width="17" height="17"/>
		<path class="st0" d="M52,289v16H36v-16H52 M53,288H35v18h18V288L53,288z"/>
	</g>
	<g>
		<rect x="17.5" y="306.5" class="st2" width="17" height="17"/>
		<path class="st0" d="M34,307v16H18v-16H34 M35,306H17v18h18V306L35,306z"/>
	</g>
	<g>
		<rect x="35.5" y="324.5" class="st2" width="17" height="17"/>
		<path class="st0" d="M52,325v16H36v-16H52 M53,324H35v18h18V324L53,324z"/>
	</g>
	<g>
		<rect x="53.5" y="342.5" class="st2" width="17" height="17"/>
		<path class="st0" d="M70,343v16H54v-16H70 M71,342H53v18h18V342L71,342z"/>
	</g>
	<g>
		<rect x="71.5" y="360.5" class="st2" width="17" height="17"/>
		<path class="st0" d="M88,361v16H72v-16H88 M89,360H71v18h18V360L89,360z"/>
	</g>
	<g>
		<rect x="89.5" y="378.5" class="st2" width="17" height="17"/>
		<path class="st0" d="M106,379v16H90v-16H106 M107,378H89v18h18V378L107,378z"/>
	</g>
	<g>
		<rect x="107.5" y="396.5" class="st2" width="17" height="17"/>
		<path class="st0" d="M124,397v16h-16v-16H124 M125,396h-18v18h18V396L125,396z"/>
	</g>
	<g>
		<rect x="89.5" y="414.5" class="st2" width="17" height="17"/>
		<path class="st0" d="M106,415v16H90v-16H106 M107,414H89v18h18V414L107,414z"/>
	</g>
	<g>
		<rect x="71.5" y="396.5" class="st2" width="17" height="17"/>
		<path class="st0" d="M88,397v16H72v-16H88 M89,396H71v18h18V396L89,396z"/>
	</g>
	<g>
		<rect x="53.5" y="378.5" class="st2" width="17" height="17"/>
		<path class="st0" d="M70,379v16H54v-16H70 M71,378H53v18h18V378L71,378z"/>
	</g>
	<g>
		<rect x="35.5" y="360.5" class="st2" width="17" height="17"/>
		<path class="st0" d="M52,361v16H36v-16H52 M53,360H35v18h18V360L53,360z"/>
	</g>
	<g>
		<rect x="17.5" y="342.5" class="st2" width="17" height="17"/>
		<path class="st0" d="M34,343v16H18v-16H34 M35,342H17v18h18V342L35,342z"/>
	</g>
	<g>
		<rect x="-0.5" y="324.5" class="st2" width="17" height="17"/>
		<path class="st0" d="M16,325v16H0v-16H16 M17,324H-1v18h18V324L17,324z"/>
	</g>
	<g>
		<rect x="-0.5" y="360.5" class="st2" width="17" height="17"/>
		<path class="st0" d="M16,361v16H0v-16H16 M17,360H-1v18h18V360L17,360z"/>
	</g>
	<g>
		<rect x="18.5" y="378.5" class="st2" width="17" height="17"/>
		<path class="st0" d="M35,379v16H19v-16H35 M36,378H18v18h18V378L36,378z"/>
	</g>
	<g>
		<rect x="36.5" y="396.5" class="st2" width="17" height="17"/>
		<path class="st0" d="M53,397v16H37v-16H53 M54,396H36v18h18V396L54,396z"/>
	</g>
	<g>
		<rect x="54.5" y="414.5" class="st2" width="17" height="17"/>
		<path class="st0" d="M71,415v16H55v-16H71 M72,414H54v18h18V414L72,414z"/>
	</g>
	<g>
		<rect x="72.5" y="432.5" class="st2" width="17" height="17"/>
		<path class="st0" d="M89,433v16H73v-16H89 M90,432H72v18h18V432L90,432z"/>
	</g>
	<g>
		<rect x="54.5" y="450.5" class="st2" width="17" height="17"/>
		<path class="st0" d="M71,451v16H55v-16H71 M72,450H54v18h18V450L72,450z"/>
	</g>
	<g>
		<rect x="35.5" y="432.5" class="st2" width="17" height="17"/>
		<path class="st0" d="M52,433v16H36v-16H52 M53,432H35v18h18V432L53,432z"/>
	</g>
	<g>
		<rect x="17.5" y="414.5" class="st2" width="17" height="17"/>
		<path class="st0" d="M34,415v16H18v-16H34 M35,414H17v18h18V414L35,414z"/>
	</g>
	<g>
		<rect x="-0.5" y="396.5" class="st2" width="17" height="17"/>
		<path class="st0" d="M16,397v16H0v-16H16 M17,396H-1v18h18V396L17,396z"/>
	</g>
</g>
<g id="Layer_2">
	<line class="st3" x1="108" y1="198" x2="162.5" y2="144.5"/>
	<line class="st3" x1="108" y1="216" x2="180" y2="144"/>
	<line class="st3" x1="108" y1="234" x2="198" y2="144"/>
	<line class="st3" x1="108" y1="252" x2="216" y2="144"/>
	<line class="st3" x1="108" y1="270" x2="234" y2="144"/>
	<line class="st3" x1="108" y1="288" x2="252" y2="144"/>
	<line class="st3" x1="108" y1="306" x2="270" y2="144"/>
	<line class="st3" x1="117" y1="315" x2="288" y2="144"/>
	<line class="st3" x1="135" y1="315" x2="306" y2="144"/>
	<line class="st3" x1="153" y1="315" x2="315" y2="153"/>
	<line class="st3" x1="171" y1="315" x2="315" y2="171"/>
	<line class="st3" x1="189" y1="315" x2="315" y2="189"/>
	<line class="st3" x1="207" y1="315" x2="315" y2="207"/>
	<line class="st3" x1="225" y1="315" x2="315" y2="225"/>
	<line class="st3" x1="243" y1="315" x2="315" y2="243"/>
	<line class="st3" x1="261" y1="315" x2="315" y2="261"/>
	<line class="st3" x1="279" y1="315" x2="315" y2="279"/>
	<line class="st3" x1="297" y1="315" x2="315" y2="297"/>
	<line class="st3" x1="108" y1="180" x2="135" y2="153"/>
	<line class="st3" x1="108" y1="162" x2="126" y2="144"/>
</g>
</svg>
