<?xml version="1.0" encoding="utf-8"?>
<!-- Generator: Adobe Illustrator 23.1.0, SVG Export Plug-In . SVG Version: 6.00 Build 0)  -->
<svg version="1.1" id="Layer_1" xmlns="http://www.w3.org/2000/svg" xmlns:xlink="http://www.w3.org/1999/xlink" x="0px" y="0px"
	 viewBox="0 0 90 72" style="enable-background:new 0 0 90 72;" xml:space="preserve">
<style type="text/css">
	.st0{display:none;}
	.st1{display:inline;fill:#E0EFDB;}
	.st2{display:inline;fill:none;stroke:#E0EFDB;stroke-width:5;stroke-miterlimit:10;}
	.st3{display:none;fill:#FFFFFF;}
	.st4{opacity:0.19;}
	.st5{fill:#E0EFDB;stroke:#000000;stroke-miterlimit:10;}
	.st6{stroke:#000000;stroke-width:3;stroke-miterlimit:10;}
	.st7{fill:none;stroke:#000000;stroke-width:2;stroke-miterlimit:10;}
	.st8{display:none;enable-background:new    ;}
	.st9{font-family:'MyriadPro-Regular';}
	.st10{font-size:12px;}
	.st11{font-size:10px;}
	.st12{display:inline;}
	.st13{display:inline;fill:none;stroke:#000000;stroke-width:2;stroke-miterlimit:10;}
	.st14{display:inline;fill:#FFFFFF;}
	.st15{stroke:#000000;stroke-width:2;stroke-miterlimit:10;}
</style>
<g class="st0">
	<path class="st1" d="M165.9,82.8c0,2.2-1.8,4-4,4H-10.4c-2.2,0-4-1.8-4-4v-97.6c0-2.2,1.8-4,4-4h172.3c2.2,0,4,1.8,4,4L165.9,82.8
		L165.9,82.8z"/>
	<path class="st2" d="M165.9,82.8c0,2.2-1.8,4-4,4H-10.4c-2.2,0-4-1.8-4-4v-97.6c0-2.2,1.8-4,4-4h172.3c2.2,0,4,1.8,4,4L165.9,82.8
		L165.9,82.8z"/>
</g>
<rect x="121.1" y="26.5" class="st3" width="41.7" height="43.9"/>
<polygon class="st0" points="121.1,26.6 163,26.6 121.1,70.4 "/>
<g class="st4">
	<line class="st5" x1="0" y1="0" x2="162" y2="0"/>
	<line class="st5" x1="0" y1="9" x2="162" y2="9"/>
	<line class="st5" x1="0" y1="18" x2="162" y2="18"/>
	<line class="st5" x1="0" y1="27" x2="162" y2="27"/>
	<line class="st5" x1="0" y1="36" x2="162" y2="36"/>
	<line class="st5" x1="0" y1="45" x2="162" y2="45"/>
	<line class="st5" x1="0" y1="54" x2="162" y2="54"/>
	<polyline class="st6" points="89.5,62.8 0,63 162,63 	"/>
	<line class="st5" x1="0" y1="72" x2="162" y2="72"/>
</g>
<line class="st7" x1="28.8" y1="-3.9" x2="51.5" y2="-3.9"/>
<line class="st7" x1="107.2" y1="83.6" x2="129.9" y2="83.6"/>
<g>
	<path d="M2.6,79.3L3,74.6h0.7l0.6,1.7l0.8,2.2c0.3-0.8,0.5-1.5,0.8-2.2l0.7-1.7h0.7l0.4,4.7H7.1l-0.2-1.9l-0.2-2.1
		C6.5,76,6.2,76.7,6,77.4l-0.7,1.8H4.8l-0.6-1.8l-0.7-2.1c0,0.2,0,0.9-0.1,2.1l-0.1,1.9H2.6z"/>
	<path d="M10.1,79.4c-0.5,0-0.9-0.2-1.2-0.5c-0.3-0.3-0.4-0.8-0.4-1.3c0-0.5,0.2-1,0.5-1.3s0.7-0.5,1.2-0.5c0.5,0,1,0.2,1.2,0.5
		s0.4,0.8,0.4,1.3c0,0.5-0.1,1-0.4,1.3C11,79.2,10.6,79.4,10.1,79.4z M10.1,76.2c-0.3,0-0.6,0.1-0.8,0.4c-0.2,0.3-0.3,0.6-0.3,1
		c0,0.4,0.1,0.7,0.3,0.9s0.5,0.4,0.8,0.4c0.4,0,0.6-0.1,0.8-0.4c0.2-0.3,0.3-0.6,0.3-0.9c0-0.4-0.1-0.7-0.3-1
		C10.7,76.3,10.5,76.2,10.1,76.2z"/>
	<path d="M13.1,75.8v0.6c0.2-0.4,0.6-0.7,1.1-0.7c0.3,0,0.6,0.1,0.8,0.3s0.3,0.5,0.3,0.8v2.4h-0.6V77c0-0.3-0.1-0.5-0.2-0.6
		s-0.3-0.2-0.5-0.2c-0.3,0-0.5,0.1-0.7,0.3c-0.2,0.2-0.3,0.5-0.3,0.9v1.9h-0.5v-3.5H13.1z"/>
</g>
<text transform="matrix(1 0 0 1 41.6544 64.4375)" class="st8 st9 st10">**** *** **** ***</text>
<text transform="matrix(1 0 0 1 45.7111 49.3164)" class="st8 st9 st11">Balance</text>
<text transform="matrix(1 0 0 1 123.965 50.0816)" class="st8 st9 st11">$322.00</text>
<g class="st0">
	<path class="st12" d="M18,68c0,2.2-1.8,4-4,4H4c-2.2,0-4-1.8-4-4V58c0-2.2,1.8-4,4-4h10c2.2,0,4,1.8,4,4V68z"/>
	<path class="st13" d="M18,68c0,2.2-1.8,4-4,4H4c-2.2,0-4-1.8-4-4V58c0-2.2,1.8-4,4-4h10c2.2,0,4,1.8,4,4V68z"/>
</g>
<g class="st0">
	<path class="st14" d="M45,68c0,2.2-1.8,4-4,4H31c-2.2,0-4-1.8-4-4V40c0-2.2,1.8-4,4-4h10c2.2,0,4,1.8,4,4V68z"/>
	<path class="st13" d="M45,68c0,2.2-1.8,4-4,4H31c-2.2,0-4-1.8-4-4V40c0-2.2,1.8-4,4-4h10c2.2,0,4,1.8,4,4V68z"/>
</g>
<g class="st0">
	<path class="st1" d="M72,68c0,2.2-1.8,4-4,4H58c-2.2,0-4-1.8-4-4V22c0-2.2,1.8-4,4-4h10c2.2,0,4,1.8,4,4V68z"/>
	<path class="st13" d="M72,68c0,2.2-1.8,4-4,4H58c-2.2,0-4-1.8-4-4V22c0-2.2,1.8-4,4-4h10c2.2,0,4,1.8,4,4V68z"/>
</g>
<g class="st0">
	<path class="st12" d="M135,68c0,2.2-1.8,4-4,4h-10c-2.2,0-4-1.8-4-4V40c0-2.2,1.8-4,4-4h10c2.2,0,4,1.8,4,4V68z"/>
	<path class="st13" d="M135,68c0,2.2-1.8,4-4,4h-10c-2.2,0-4-1.8-4-4V40c0-2.2,1.8-4,4-4h10c2.2,0,4,1.8,4,4V68z"/>
</g>
<g class="st0">
	<path class="st1" d="M162,68c0,2.2-1.8,4-4,4h-10c-2.2,0-4-1.8-4-4V58c0-2.2,1.8-4,4-4h10c2.2,0,4,1.8,4,4V68z"/>
	<path class="st13" d="M162,68c0,2.2-1.8,4-4,4h-10c-2.2,0-4-1.8-4-4V58c0-2.2,1.8-4,4-4h10c2.2,0,4,1.8,4,4V68z"/>
</g>
<g class="st0">
	<path class="st14" d="M108,68c0,2.2-1.8,4-4,4H94c-2.2,0-4-1.8-4-4V22c0-2.2,1.8-4,4-4h10c2.2,0,4,1.8,4,4V68z"/>
	<path class="st13" d="M108,68c0,2.2-1.8,4-4,4H94c-2.2,0-4-1.8-4-4V22c0-2.2,1.8-4,4-4h10c2.2,0,4,1.8,4,4V68z"/>
</g>
<g>
	<path d="M33.8,74.6v0.5h-1.3v4.2H32v-4.2h-1.3v-0.5H33.8z"/>
	<path d="M36.7,75.8h0.6v3.5h-0.6v-0.6c-0.2,0.4-0.6,0.7-1.1,0.7c-0.3,0-0.6-0.1-0.8-0.3s-0.3-0.5-0.3-0.8v-2.4H35v2.3
		c0,0.3,0.1,0.5,0.2,0.6c0.1,0.1,0.3,0.2,0.5,0.2c0.3,0,0.5-0.1,0.7-0.3c0.2-0.2,0.3-0.5,0.3-0.8V75.8z"/>
	<path d="M40.8,78.6v0.5c-0.3,0.1-0.6,0.2-1,0.2c-0.5,0-1-0.2-1.3-0.5c-0.3-0.3-0.5-0.8-0.5-1.3c0-0.6,0.1-1,0.4-1.3
		c0.3-0.3,0.7-0.5,1.1-0.5c0.4,0,0.8,0.1,1.1,0.4c0.3,0.3,0.4,0.7,0.4,1.2c0,0.1,0,0.3,0,0.4h-2.4c0,0.3,0.2,0.6,0.4,0.8
		c0.2,0.2,0.5,0.3,0.9,0.3C40.3,78.8,40.6,78.8,40.8,78.6z M40.5,77.3v-0.1c0-0.3-0.1-0.5-0.2-0.7c-0.2-0.2-0.4-0.3-0.7-0.3
		c-0.3,0-0.5,0.1-0.7,0.3s-0.3,0.5-0.3,0.8H40.5z"/>
</g>
<g>
	<path d="M58.9,74.7h0.6l0.5,1.7l0.7,2.4c0.2-1,0.4-1.8,0.5-2.4l0.4-1.8h0.6l-1.1,4.7h-0.7l-0.5-1.5l-0.7-2.4
		c-0.1,0.6-0.4,1.3-0.7,2.4l-0.4,1.5h-0.7l-1.2-4.7h0.6l0.4,1.8l0.6,2.4c0.3-1,0.5-1.7,0.7-2.4L58.9,74.7z"/>
	<path d="M65.6,78.6v0.5c-0.3,0.1-0.6,0.2-1,0.2c-0.5,0-1-0.2-1.3-0.5c-0.3-0.3-0.5-0.8-0.5-1.3c0-0.6,0.1-1,0.4-1.3
		c0.3-0.3,0.7-0.5,1.1-0.5c0.4,0,0.8,0.1,1.1,0.4c0.3,0.3,0.4,0.7,0.4,1.2c0,0.1,0,0.3,0,0.4h-2.4c0,0.3,0.2,0.6,0.4,0.8
		c0.2,0.2,0.5,0.3,0.9,0.3C65,78.8,65.3,78.8,65.6,78.6z M65.2,77.3v-0.1c0-0.3-0.1-0.5-0.2-0.7c-0.2-0.2-0.4-0.3-0.7-0.3
		c-0.3,0-0.5,0.1-0.7,0.3s-0.3,0.5-0.3,0.8H65.2z"/>
	<path d="M69,74.4h0.6v4.9H69v-0.5c-0.3,0.4-0.6,0.6-1.1,0.6c-0.5,0-0.8-0.2-1.1-0.5c-0.3-0.4-0.4-0.8-0.4-1.3c0-0.6,0.1-1,0.4-1.3
		c0.3-0.3,0.7-0.5,1.1-0.5c0.5,0,0.8,0.2,1.1,0.6V74.4z M68,78.9c0.3,0,0.5-0.1,0.7-0.3c0.2-0.2,0.3-0.6,0.3-1c0-0.4-0.1-0.8-0.3-1
		s-0.4-0.3-0.7-0.3c-0.3,0-0.5,0.1-0.7,0.4c-0.2,0.2-0.3,0.6-0.3,1c0,0.4,0.1,0.7,0.3,0.9C67.5,78.7,67.7,78.9,68,78.9z"/>
</g>
<g>
	<path d="M97.5,74.6v0.5h-1.3v4.2h-0.6v-4.2h-1.3v-0.5H97.5z"/>
	<path d="M98.7,74.4v2c0.2-0.4,0.6-0.7,1.1-0.7c0.3,0,0.6,0.1,0.8,0.3c0.2,0.2,0.3,0.5,0.3,0.9v2.4h-0.6V77c0-0.3-0.1-0.5-0.2-0.6
		c-0.1-0.1-0.3-0.2-0.5-0.2c-0.3,0-0.5,0.1-0.7,0.3c-0.2,0.2-0.3,0.5-0.3,0.9v1.9h-0.5v-4.9H98.7z"/>
	<path d="M102.5,75.8v0.6c0.2-0.4,0.5-0.7,1-0.7c0.1,0,0.1,0,0.2,0v0.5c-0.1,0-0.2,0-0.3,0c-0.2,0-0.5,0.1-0.6,0.3
		c-0.2,0.2-0.2,0.5-0.2,0.8v1.9h-0.6l0-3.5H102.5z"/>
</g>
<g>
	<path d="M125.5,75.1h-2v1.7h1.8v0.5h-1.8v2.1h-0.6v-4.7h2.6V75.1z"/>
	<path d="M126.8,75.8v0.6c0.2-0.4,0.5-0.7,1-0.7c0.1,0,0.1,0,0.2,0v0.5c-0.1,0-0.2,0-0.3,0c-0.2,0-0.5,0.1-0.6,0.3
		c-0.2,0.2-0.2,0.5-0.2,0.8v1.9h-0.6l0-3.5H126.8z"/>
	<path d="M128.6,74.9c-0.1-0.1-0.1-0.2-0.1-0.3s0-0.2,0.1-0.3s0.2-0.1,0.3-0.1c0.1,0,0.2,0,0.3,0.1c0.1,0.1,0.1,0.2,0.1,0.3
		s0,0.2-0.1,0.3c-0.1,0.1-0.2,0.1-0.3,0.1C128.7,75,128.7,75,128.6,74.9z M128.6,79.3v-3.5h0.6v3.5H128.6z"/>
</g>
<g>
	<path d="M151.1,74.8v0.6c-0.3-0.2-0.6-0.3-1-0.3c-0.3,0-0.5,0.1-0.7,0.2s-0.3,0.3-0.3,0.5c0,0.1,0,0.2,0.1,0.3
		c0,0.1,0.1,0.2,0.2,0.2c0.1,0.1,0.2,0.1,0.3,0.2c0.1,0,0.2,0.1,0.4,0.2c0.2,0.1,0.3,0.1,0.4,0.2c0.1,0,0.2,0.1,0.3,0.2
		c0.1,0.1,0.2,0.2,0.3,0.3c0.1,0.1,0.1,0.2,0.2,0.3s0.1,0.3,0.1,0.4c0,0.4-0.1,0.7-0.4,1c-0.3,0.2-0.7,0.3-1.1,0.3
		c-0.5,0-0.9-0.1-1.3-0.3v-0.6c0.3,0.3,0.8,0.4,1.2,0.4c0.3,0,0.5-0.1,0.7-0.2s0.3-0.3,0.3-0.6c0-0.1,0-0.2-0.1-0.3
		c0-0.1-0.1-0.2-0.2-0.2c-0.1-0.1-0.2-0.1-0.3-0.2c-0.1,0-0.2-0.1-0.3-0.2c0,0-0.1,0-0.1-0.1c-0.2-0.1-0.4-0.2-0.5-0.2
		c-0.1-0.1-0.2-0.1-0.4-0.2c-0.1-0.1-0.2-0.2-0.3-0.4c-0.1-0.1-0.1-0.3-0.1-0.5c0-0.4,0.1-0.7,0.4-0.9c0.3-0.2,0.6-0.3,1.1-0.3
		C150.5,74.5,150.9,74.6,151.1,74.8z"/>
	<path d="M152.4,76.5v-0.6c0.3-0.2,0.6-0.2,1-0.2c0.9,0,1.3,0.5,1.3,1.4v2.2h-0.5v-0.4c-0.2,0.3-0.5,0.5-1,0.5
		c-0.3,0-0.6-0.1-0.8-0.3c-0.2-0.2-0.3-0.4-0.3-0.7c0-0.3,0.1-0.6,0.4-0.8c0.3-0.2,0.6-0.3,1.1-0.3h0.6V77c0-0.3-0.1-0.5-0.2-0.6
		s-0.3-0.2-0.6-0.2C153,76.2,152.7,76.3,152.4,76.5z M154.2,77.7h-0.6c-0.3,0-0.5,0.1-0.7,0.2c-0.1,0.1-0.2,0.3-0.2,0.4
		c0,0.2,0.1,0.3,0.2,0.4c0.1,0.1,0.3,0.2,0.5,0.2c0.3,0,0.5-0.1,0.6-0.2s0.2-0.3,0.2-0.5V77.7z"/>
	<path d="M156.5,76.2v2.1c0,0.4,0.2,0.6,0.5,0.6c0.2,0,0.3-0.1,0.5-0.2v0.5c-0.2,0.1-0.3,0.1-0.5,0.1c-0.7,0-1.1-0.4-1.1-1.1v-2.1
		h-0.6v-0.4h0.6v-0.9h0.6v0.9h1v0.4H156.5z"/>
</g>
<polyline class="st7" points="76.8,14.3 67.1,33.8 47.8,24.1 28.4,53.3 18.7,43.5 9,63 "/>
<polygon class="st15" points="79.9,9 82.4,16.7 71.6,11.6 "/>
</svg>
